<svg xmlns="http://www.w3.org/2000/svg" width="1200" height="630" viewBox="0 0 1200 630" role="img" aria-labelledby="legacy-social-social-legacy-rsn-v1-title legacy-social-social-legacy-rsn-v1-desc" data-engine="legacy-resonance" data-surface="social" class="motion-static"><title id="legacy-social-social-legacy-rsn-v1-title">Legacy Sound Design</title><desc id="legacy-social-social-legacy-rsn-v1-desc">Deterministic signal-constellation identity mark for Legacy Sound Design.</desc><defs>
      <linearGradient id="legacy-social-social-legacy-rsn-v1-field" x1="0%" y1="0%" x2="100%" y2="100%">
        <stop offset="0%" stop-color="#07090D" />
        <stop offset="58%" stop-color="#0B1A2C" />
        <stop offset="100%" stop-color="#07090D" />
      </linearGradient>
      <linearGradient id="legacy-social-social-legacy-rsn-v1-accent" x1="0%" y1="0%" x2="100%" y2="100%">
        <stop offset="0%" stop-color="#7894D4" />
        <stop offset="54%" stop-color="#315EA8" />
        <stop offset="100%" stop-color="#0B1A2C" />
      </linearGradient>
      <linearGradient id="legacy-social-social-legacy-rsn-v1-metal" x1="0%" y1="0%" x2="100%" y2="100%">
        <stop offset="0%" stop-color="#F7F8FA" />
        <stop offset="52%" stop-color="#C9D0D8" />
        <stop offset="100%" stop-color="#F7F8FA" />
      </linearGradient>
      <style>
        text { font-family: "Space Grotesk", Inter, "Avenir Next", "Helvetica Neue", Arial, sans-serif; }
        @media (prefers-reduced-motion: reduce) { .pulse, .trail { animation: none !important; } }
        
      </style>
    </defs><rect width="100%" height="100%" rx="0" fill="url(#legacy-social-social-legacy-rsn-v1-field)" /><g data-layer="resonance-field"><circle class="pulse" cx="600" cy="258.3" r="113.344" fill="none" stroke="#315EA8" stroke-width="1.096" opacity="0.093" /><circle class="pulse" cx="600" cy="258.3" r="119.587" fill="none" stroke="#7A8492" stroke-width="1.096" opacity="0.087" /><circle class="pulse" cx="600" cy="258.3" r="125.831" fill="none" stroke="#315EA8" stroke-width="1.096" opacity="0.081" /><circle class="pulse" cx="600" cy="258.3" r="132.074" fill="none" stroke="#7A8492" stroke-width="1.096" opacity="0.076" /><circle class="pulse" cx="600" cy="258.3" r="138.318" fill="none" stroke="#315EA8" stroke-width="1.096" opacity="0.07" /><circle class="pulse" cx="600" cy="258.3" r="144.562" fill="none" stroke="#7A8492" stroke-width="1.096" opacity="0.064" /><path d="M 120 403.2 L 540 403.2 l 14.4 -11.34 l 19.2 31.5 l 14.4 -20.16 L 1080 403.2" fill="none" stroke="#7A8492" stroke-width="0.822" opacity="0.5" /></g><g data-layer="motherform"><circle class="module" cx="464.55" cy="258.3" r="5.544" fill="#C9D0D8" opacity="0.72" /><rect class="module" x="486.6" y="247.296" width="12.6" height="22.007" rx="5.292" fill="#C9D0D8" opacity="0.96" /><rect class="module" x="511.8" y="232.738" width="12.6" height="51.125" rx="5.292" fill="#C9D0D8" opacity="0.96" /><rect class="module" x="537" y="214.444" width="12.6" height="87.712" rx="5.292" fill="#C9D0D8" opacity="0.96" /><rect class="module" x="562.2" y="193.584" width="12.6" height="129.432" rx="5.292" fill="#C9D0D8" opacity="0.96" /><rect class="module" x="592.755" y="129.954" width="14.49" height="256.693" rx="6.086" fill="url(#legacy-social-social-legacy-rsn-v1-metal)" opacity="0.96" /><rect class="module-accent" x="625.2" y="178.253" width="12.6" height="160.094" rx="5.292" fill="url(#legacy-social-social-legacy-rsn-v1-accent)" opacity="0.96" /><rect class="module-accent" x="650.4" y="201.199" width="12.6" height="114.203" rx="5.292" fill="url(#legacy-social-social-legacy-rsn-v1-accent)" opacity="0.96" /><rect class="module-accent" x="675.6" y="222.801" width="12.6" height="70.998" rx="5.292" fill="url(#legacy-social-social-legacy-rsn-v1-accent)" opacity="0.96" /><rect class="module" x="700.8" y="239.787" width="12.6" height="37.025" rx="5.292" fill="#C9D0D8" opacity="0.96" /><circle class="module" cx="735.45" cy="258.3" r="5.544" fill="#C9D0D8" opacity="0.72" /><rect x="595.59" y="126" width="8.82" height="264.6" rx="3.087" fill="#F7F8FA" opacity="0.98" /></g><g data-layer="lockup">
    <g data-layer="wordmark" data-font="newsreader-700" fill="#F7F8FA"><path d="M172.81 475.9L167.77 503.47L164.8 503.47L158.1 499.34L127.4 499.34L127.45 492.13L161.07 492.13L156.18 494.95L168.88 475.3L172.81 475.9M143.43 434.07L135.82 436.94L135.82 499.34L111.68 499.34L111.68 496.47L119.29 493.59L119.29 436.94L111.68 434.07L111.68 431.2L143.43 431.2L143.43 434.07" /><path d="M198.92 452.97L198.92 452.97Q205.22 452.97 209.56 455.52Q213.89 458.06 216.28 462.95Q218.68 467.84 219.13 474.89L219.13 474.89L185.92 474.89L185.92 470.06L211.37 468.9L205.22 471.67Q205.07 467.18 204.21 464.31Q203.36 461.44 201.77 460.03Q200.18 458.61 197.81 458.61L197.81 458.61Q195.34 458.61 193.48 459.98Q191.61 461.34 190.56 464.56Q189.5 467.79 189.5 473.48L189.5 473.48Q189.5 479.08 191.39 482.83Q193.28 486.59 196.8 488.48Q200.33 490.37 205.27 490.37L205.27 490.37Q207.59 490.37 209.66 490.01Q211.72 489.66 213.69 488.88Q215.65 488.1 217.67 486.84L217.67 486.84L219.13 489.96Q216.01 493.19 212.76 495.61Q209.51 498.03 206.03 499.34Q202.55 500.65 198.72 500.65L198.72 500.65Q191.71 500.65 186.52 497.67Q181.33 494.7 178.51 489.51Q175.69 484.32 175.69 477.57L175.69 477.57Q175.69 470.71 178.38 465.12Q181.08 459.52 186.27 456.25Q191.46 452.97 198.92 452.97" /><path d="M244.94 525.5L244.94 525.5Q238.94 525.5 234.55 524.74Q230.17 523.98 227.4 522.52Q224.63 521.06 223.29 519.07Q221.95 517.08 221.95 514.66L221.95 514.66Q221.95 512.74 222.84 511.11Q223.72 509.47 225.96 508.11Q228.2 506.75 232.16 505.61Q236.12 504.48 242.27 503.52L242.27 503.52L246.85 503.52L246.9 504.53Q241.46 505.23 238.56 506.39Q235.66 507.55 234.63 509.12Q233.6 510.68 233.6 512.64L233.6 512.64Q233.6 514.96 235.06 516.65Q236.52 518.34 239.54 519.25Q242.57 520.15 247.31 520.15L247.31 520.15Q252.04 520.15 255.34 519.15Q258.65 518.14 260.38 516.42Q262.12 514.71 262.12 512.64L262.12 512.64Q262.12 511.13 261.32 510.07Q260.51 509.01 258.52 508.26Q256.53 507.5 252.87 507Q249.22 506.49 243.48 506.14L243.48 506.14Q237.78 505.74 234.15 504.71Q230.52 503.67 228.58 502.11Q226.64 500.55 225.91 498.58Q225.18 496.62 225.23 494.45L225.23 494.45Q225.33 490.01 228.86 487.27Q232.39 484.52 239.29 483.66L239.29 483.66L240.96 485.48Q237.93 485.78 236.75 486.74Q235.56 487.7 235.56 489.26L235.56 489.26Q235.56 490.37 236.12 491.12Q236.67 491.88 238.26 492.43Q239.85 492.99 242.97 493.32Q246.1 493.64 251.29 493.89L251.29 493.89Q256.93 494.2 260.99 495.05Q265.05 495.91 267.62 497.52Q270.19 499.14 271.45 501.58Q272.71 504.03 272.71 507.45L272.71 507.45Q272.71 512.59 269.51 516.68Q266.31 520.76 260.11 523.13Q253.91 525.5 244.94 525.5M245.14 486.39L245.14 486.39Q238.54 486.39 233.85 484.29Q229.16 482.2 226.67 478.42Q224.17 474.64 224.17 469.7L224.17 469.7Q224.17 464.51 226.82 460.76Q229.46 457 234.23 454.99Q238.99 452.97 245.19 452.97L245.19 452.97Q250.43 452.97 254.34 454.41Q258.24 455.84 260.86 458.26Q263.48 460.68 264.82 463.63Q266.16 466.58 266.16 469.65L266.16 469.65Q266.16 474.79 263.48 478.57Q260.81 482.35 256.1 484.37Q251.39 486.39 245.14 486.39M245.54 481.14L245.54 481.14Q248.46 481.14 250.15 478.7Q251.84 476.25 251.84 470.61L251.84 470.61Q251.84 463.96 249.95 461.03Q248.06 458.11 244.84 458.11L244.84 458.11Q241.91 458.11 240.2 460.53Q238.49 462.95 238.49 468.64L238.49 468.64Q238.49 475.3 240.4 478.22Q242.32 481.14 245.54 481.14M252.35 457.2L252.35 457.2L251.24 453.78Q255.27 454.23 258.39 454.15Q261.52 454.08 263.91 453.75Q266.31 453.42 268.2 453.1Q270.09 452.77 271.65 452.77L271.65 452.77Q273.31 452.77 274.17 453.73Q275.03 454.68 275.03 456.9L275.03 456.9Q275.03 459.98 273.72 461.36Q272.4 462.75 270.74 462.75L270.74 462.75Q269.18 462.75 267.72 461.74Q266.26 460.73 264.34 459.5Q262.43 458.26 259.58 457.51Q256.73 456.75 252.35 457.2" /><path d="M304.06 471.11L304.06 471.11L304.16 476Q299.72 476.91 296.97 477.94Q294.23 478.98 292.74 480.11Q291.25 481.24 290.73 482.55Q290.2 483.87 290.2 485.48L290.2 485.48Q290.2 488.7 291.61 490.17Q293.02 491.63 295.49 491.63L295.49 491.63Q297.25 491.63 298.64 490.77Q300.02 489.91 300.83 488.5Q301.64 487.09 301.64 485.38L301.64 485.38L301.64 466.23Q301.64 462.95 299.92 461.11Q298.21 459.27 294.38 459.27L294.38 459.27Q292.72 459.27 291.08 459.55Q289.44 459.82 288.08 460.38L288.08 460.38L290.04 456.8Q289.69 459.57 289.31 461.39Q288.94 463.2 288.51 464.34Q288.08 465.47 287.47 466.23L287.47 466.23Q286.67 467.38 285.13 467.99Q283.59 468.59 281.68 468.59L281.68 468.59Q279.21 468.59 277.92 467.69Q276.64 466.78 276.64 465.22L276.64 465.22Q276.64 463.1 278.58 460.96Q280.52 458.82 283.87 457.03Q287.22 455.24 291.51 454.18Q295.79 453.12 300.43 453.12L300.43 453.12Q306.58 453.12 310.05 454.94Q313.53 456.75 314.97 460Q316.4 463.25 316.4 467.64L316.4 467.64L316.4 489.51Q316.4 490.82 316.78 491.68Q317.16 492.53 317.89 492.94Q318.62 493.34 319.78 493.34L319.78 493.34Q320.69 493.34 321.82 493.04Q322.96 492.74 324.17 492.08L324.17 492.08L324.17 495.76Q321.44 497.98 318.34 499.31Q315.24 500.65 312.42 500.65L312.42 500.65Q308.89 500.65 306.65 499.29Q304.41 497.93 303.35 495.38Q302.29 492.84 302.14 489.41L302.14 489.41L302.64 489.16Q301.64 493.04 299.7 495.61Q297.76 498.18 295.03 499.41Q292.31 500.65 288.94 500.65L288.94 500.65Q283.09 500.65 279.51 497.65Q275.93 494.65 275.93 488.6L275.93 488.6Q275.93 485.68 277.12 483.29Q278.3 480.89 281.33 478.8Q284.35 476.71 289.87 474.82Q295.39 472.93 304.06 471.11" /><path d="M353.35 452.97L353.35 452.97Q358.69 452.97 361.89 454.05Q365.09 455.14 366.5 456.9Q367.91 458.67 367.91 460.68L367.91 460.68Q367.91 462.6 367.01 464.06Q366.1 465.52 364.59 466.33Q363.07 467.13 361.31 467.13L361.31 467.13Q359.75 467.13 358.31 466.28Q356.88 465.42 355.56 464.18Q354.25 462.95 352.97 461.71Q351.68 460.48 350.47 459.62Q349.26 458.77 348 458.77L348 458.77Q345.64 458.77 343.65 460.1Q341.65 461.44 340.44 464.36Q339.24 467.28 339.24 472.07L339.24 472.07Q339.24 478.27 341.02 482.3Q342.81 486.33 346.19 488.33Q349.57 490.32 354.3 490.32L354.3 490.32Q357.68 490.32 360.58 489.46Q363.48 488.6 366.45 486.74L366.45 486.74L367.96 489.91Q364.44 493.69 361.11 496.06Q357.78 498.43 354.51 499.54Q351.23 500.65 347.95 500.65L347.95 500.65Q341.05 500.65 336.01 497.75Q330.97 494.85 328.2 489.71Q325.43 484.57 325.43 477.97L325.43 477.97Q325.43 472.73 327.29 468.17Q329.16 463.6 332.73 460.2Q336.31 456.8 341.5 454.89Q346.69 452.97 353.35 452.97" /><path d="M390.64 459.02L405.11 490.01L397.4 505.54L374.36 459.62L368.27 457.1L368.27 454.28L396.34 454.28L396.34 457.15L390.64 459.02M381.97 525.5L381.97 525.5Q378.24 525.5 375.98 523.63Q373.71 521.77 373.71 518.49L373.71 518.49Q373.71 516.78 374.41 515.47Q375.12 514.16 376.13 513.45Q377.14 512.74 377.99 512.74L377.99 512.74Q378.9 512.74 379.98 513.12Q381.07 513.5 382.45 513.88Q383.84 514.26 385.65 514.26L385.65 514.26Q387.52 514.26 388.93 513.68Q390.34 513.1 391.58 511.59Q392.81 510.07 394.17 507.3L394.17 507.3L399.41 495.96L401.88 490.42L413.27 458.87L407.93 457.15L407.93 454.28L425.62 454.28L425.62 457.15L420.63 458.97L400.02 508.71Q397.25 515.42 394.62 519.04Q392 522.67 389.01 524.08Q386.01 525.5 381.97 525.5" /></g>
    <g data-layer="descriptor-accent" data-font="space-grotesk-500" fill="#315EA8"><path d="M121.8 571.18L121.8 571.18Q120.13 571.18 118.83 570.58Q117.54 569.99 116.8 568.83Q116.07 567.67 116.07 566.02L116.07 566.02L116.07 565.49L118.34 565.49L118.34 566.02Q118.34 567.59 119.29 568.38Q120.23 569.16 121.8 569.16L121.8 569.16Q123.39 569.16 124.2 568.49Q125.01 567.82 125.01 566.76L125.01 566.76Q125.01 566.06 124.63 565.62Q124.24 565.17 123.54 564.9Q122.84 564.64 121.87 564.41L121.87 564.41L121.08 564.21Q119.66 563.87 118.61 563.38Q117.56 562.88 116.98 562.05Q116.41 561.22 116.41 559.93L116.41 559.93Q116.41 558.61 117.06 557.68Q117.71 556.74 118.85 556.23Q120 555.72 121.55 555.72L121.55 555.72Q123.1 555.72 124.32 556.25Q125.54 556.78 126.24 557.82Q126.94 558.86 126.94 560.44L126.94 560.44L126.94 561.2L124.67 561.2L124.67 560.44Q124.67 559.48 124.28 558.89Q123.88 558.29 123.18 558.02Q122.48 557.74 121.55 557.74L121.55 557.74Q120.19 557.74 119.44 558.3Q118.68 558.86 118.68 559.86L118.68 559.86Q118.68 560.54 119.01 560.98Q119.34 561.41 119.98 561.69Q120.61 561.96 121.57 562.18L121.57 562.18L122.35 562.37Q123.8 562.69 124.9 563.18Q126.01 563.68 126.64 564.53Q127.28 565.38 127.28 566.72L127.28 566.72Q127.28 568.06 126.61 569.05Q125.94 570.05 124.71 570.62Q123.48 571.18 121.8 571.18" /><path d="M140.68 571.18L140.68 571.18Q137.94 571.18 136.33 569.64Q134.71 568.1 134.71 565.19L134.71 565.19L134.71 561.71Q134.71 558.8 136.33 557.26Q137.94 555.72 140.68 555.72L140.68 555.72Q143.42 555.72 145.04 557.26Q146.67 558.8 146.67 561.71L146.67 561.71L146.67 565.19Q146.67 568.1 145.04 569.64Q143.42 571.18 140.68 571.18M140.68 569.12L140.68 569.12Q142.44 569.12 143.4 568.09Q144.35 567.06 144.35 565.28L144.35 565.28L144.35 561.62Q144.35 559.84 143.4 558.81Q142.44 557.78 140.68 557.78L140.68 557.78Q138.96 557.78 137.98 558.81Q137.01 559.84 137.01 561.62L137.01 561.62L137.01 565.28Q137.01 567.06 137.98 568.09Q138.96 569.12 140.68 569.12" /><path d="M160.37 571.18L160.37 571.18Q158.6 571.18 157.34 570.54Q156.08 569.9 155.39 568.7Q154.7 567.51 154.7 565.79L154.7 565.79L154.7 556.02L157.01 556.02L157.01 565.85Q157.01 567.42 157.88 568.27Q158.75 569.12 160.37 569.12L160.37 569.12Q161.98 569.12 162.85 568.27Q163.72 567.42 163.72 565.85L163.72 565.85L163.72 556.02L166.01 556.02L166.01 565.79Q166.01 567.51 165.33 568.7Q164.65 569.9 163.38 570.54Q162.11 571.18 160.37 571.18" /><path d="M176.7 570.88L174.42 570.88L174.42 556.02L178.84 556.02L182.87 569.35L183.21 569.35L183.21 556.02L185.49 556.02L185.49 570.88L181.07 570.88L177.04 557.53L176.7 557.53L176.7 570.88" /><path d="M199.4 570.88L193.45 570.88L193.45 568.84L195.45 568.84L195.45 558.06L193.45 558.06L193.45 556.02L199.4 556.02Q202.37 556.02 203.95 557.53Q205.53 559.03 205.53 562.07L205.53 562.07L205.53 564.85Q205.53 567.89 203.95 569.38Q202.37 570.88 199.4 570.88L199.4 570.88M197.76 558.12L197.76 568.8L199.42 568.8Q201.35 568.8 202.28 567.82Q203.22 566.85 203.22 564.91L203.22 564.91L203.22 561.99Q203.22 560.03 202.28 559.08Q201.35 558.12 199.42 558.12L199.42 558.12L197.76 558.12" /></g><g data-layer="descriptor" data-font="space-grotesk-500" fill="#C9D0D8"><path d="M241.96 570.88L236.01 570.88L236.01 568.84L238.01 568.84L238.01 558.06L236.01 558.06L236.01 556.02L241.96 556.02Q244.93 556.02 246.51 557.53Q248.09 559.03 248.09 562.07L248.09 562.07L248.09 564.85Q248.09 567.89 246.51 569.38Q244.93 570.88 241.96 570.88L241.96 570.88M240.32 558.12L240.32 568.8L241.98 568.8Q243.91 568.8 244.85 567.82Q245.78 566.85 245.78 564.91L245.78 564.91L245.78 561.99Q245.78 560.03 244.85 559.08Q243.91 558.12 241.98 558.12L241.98 558.12L240.32 558.12" /><path d="M265.57 570.88L256.1 570.88L256.1 556.02L265.46 556.02L265.46 558.1L258.39 558.1L258.39 562.37L264.87 562.37L264.87 564.45L258.39 564.45L258.39 568.8L265.57 568.8L265.57 570.88" /><path d="M278.44 571.18L278.44 571.18Q276.76 571.18 275.47 570.58Q274.17 569.99 273.44 568.83Q272.71 567.67 272.71 566.02L272.71 566.02L272.71 565.49L274.98 565.49L274.98 566.02Q274.98 567.59 275.92 568.38Q276.87 569.16 278.44 569.16L278.44 569.16Q280.03 569.16 280.84 568.49Q281.65 567.82 281.65 566.76L281.65 566.76Q281.65 566.06 281.26 565.62Q280.88 565.17 280.18 564.9Q279.48 564.64 278.5 564.41L278.5 564.41L277.72 564.21Q276.3 563.87 275.25 563.38Q274.19 562.88 273.62 562.05Q273.05 561.22 273.05 559.93L273.05 559.93Q273.05 558.61 273.7 557.68Q274.34 556.74 275.49 556.23Q276.64 555.72 278.19 555.72L278.19 555.72Q279.74 555.72 280.96 556.25Q282.18 556.78 282.88 557.82Q283.58 558.86 283.58 560.44L283.58 560.44L283.58 561.2L281.31 561.2L281.31 560.44Q281.31 559.48 280.91 558.89Q280.52 558.29 279.82 558.02Q279.12 557.74 278.19 557.74L278.19 557.74Q276.83 557.74 276.07 558.3Q275.32 558.86 275.32 559.86L275.32 559.86Q275.32 560.54 275.65 560.98Q275.98 561.41 276.61 561.69Q277.25 561.96 278.21 562.18L278.21 562.18L278.99 562.37Q280.44 562.69 281.54 563.18Q282.64 563.68 283.28 564.53Q283.92 565.38 283.92 566.72L283.92 566.72Q283.92 568.06 283.25 569.05Q282.58 570.05 281.35 570.62Q280.12 571.18 278.44 571.18" /><path d="M294.03 570.88L291.74 570.88L291.74 556.02L294.03 556.02L294.03 570.88" /><path d="M307.7 571.18L307.7 571.18Q306.11 571.18 304.86 570.49Q303.61 569.8 302.89 568.46Q302.16 567.12 302.16 565.19L302.16 565.19L302.16 561.71Q302.16 558.8 303.76 557.26Q305.35 555.72 308.07 555.72L308.07 555.72Q310.74 555.72 312.18 557.18Q313.63 558.63 313.63 561.07L313.63 561.07L313.63 561.18L311.36 561.18L311.36 561.01Q311.36 560.1 311 559.36Q310.63 558.63 309.91 558.21Q309.19 557.78 308.07 557.78L308.07 557.78Q306.37 557.78 305.41 558.81Q304.46 559.84 304.46 561.67L304.46 561.67L304.46 565.23Q304.46 567.04 305.41 568.09Q306.37 569.14 308.09 569.14L308.09 569.14Q309.79 569.14 310.57 568.21Q311.36 567.27 311.36 565.79L311.36 565.79L311.36 565.51L307.36 565.51L307.36 563.53L313.63 563.53L313.63 570.88L311.5 570.88L311.5 569.37L311.17 569.37Q310.97 569.78 310.6 570.2Q310.23 570.63 309.54 570.9Q308.85 571.18 307.7 571.18" /><path d="M324.27 570.88L322 570.88L322 556.02L326.41 556.02L330.45 569.35L330.79 569.35L330.79 556.02L333.06 556.02L333.06 570.88L328.64 570.88L324.61 557.53L324.27 557.53L324.27 570.88" /></g>
    <text opacity="0" x="108" y="526.05">Legacy</text>
    <text opacity="0" x="108" y="577.08">SOUND DESIGN</text>
  </g></svg>