<svg xmlns="http://www.w3.org/2000/svg" width="1600" height="900" viewBox="0 0 1600 900" role="img" aria-labelledby="legacy-hero-hero-legacy-rsn-v1-title legacy-hero-hero-legacy-rsn-v1-desc" data-engine="legacy-resonance" data-surface="hero" class="motion-static"><title id="legacy-hero-hero-legacy-rsn-v1-title">Legacy Sound Design</title><desc id="legacy-hero-hero-legacy-rsn-v1-desc">Deterministic signal-constellation identity mark for Legacy Sound Design.</desc><defs>
      <linearGradient id="legacy-hero-hero-legacy-rsn-v1-field" x1="0%" y1="0%" x2="100%" y2="100%">
        <stop offset="0%" stop-color="#050608" />
        <stop offset="58%" stop-color="#101216" />
        <stop offset="100%" stop-color="#050608" />
      </linearGradient>
      <linearGradient id="legacy-hero-hero-legacy-rsn-v1-accent" x1="0%" y1="0%" x2="100%" y2="100%">
        <stop offset="0%" stop-color="#D9DDE3" />
        <stop offset="54%" stop-color="#FFFFFF" />
        <stop offset="100%" stop-color="#101216" />
      </linearGradient>
      <linearGradient id="legacy-hero-hero-legacy-rsn-v1-metal" x1="0%" y1="0%" x2="100%" y2="100%">
        <stop offset="0%" stop-color="#FFFFFF" />
        <stop offset="52%" stop-color="#C8CDD4" />
        <stop offset="100%" stop-color="#FFFFFF" />
      </linearGradient>
      <style>
        text { font-family: "Space Grotesk", Inter, "Avenir Next", "Helvetica Neue", Arial, sans-serif; }
        @media (prefers-reduced-motion: reduce) { .pulse, .trail { animation: none !important; } }
        
      </style>
    </defs><rect width="100%" height="100%" rx="0" fill="url(#legacy-hero-hero-legacy-rsn-v1-field)" /><g data-layer="resonance-field"><circle class="pulse" cx="800" cy="369" r="160.902" fill="none" stroke="#FFFFFF" stroke-width="1.272" opacity="0.094" /><circle class="pulse" cx="800" cy="369" r="168.805" fill="none" stroke="#7F8793" stroke-width="1.272" opacity="0.089" /><circle class="pulse" cx="800" cy="369" r="176.707" fill="none" stroke="#FFFFFF" stroke-width="1.272" opacity="0.084" /><circle class="pulse" cx="800" cy="369" r="184.61" fill="none" stroke="#7F8793" stroke-width="1.272" opacity="0.079" /><circle class="pulse" cx="800" cy="369" r="192.512" fill="none" stroke="#FFFFFF" stroke-width="1.272" opacity="0.074" /><circle class="pulse" cx="800" cy="369" r="200.415" fill="none" stroke="#7F8793" stroke-width="1.272" opacity="0.069" /><circle class="pulse" cx="800" cy="369" r="208.317" fill="none" stroke="#FFFFFF" stroke-width="1.272" opacity="0.064" /><path d="M 160 576 L 720 576 l 19.2 -16.2 l 25.6 45 l 19.2 -28.8 L 1440 576" fill="none" stroke="#7F8793" stroke-width="0.954" opacity="0.5" /></g><g data-layer="motherform"><circle class="module" cx="606.5" cy="369" r="7.92" fill="#C8CDD4" opacity="0.72" /><rect class="module" x="638" y="352.835" width="18" height="32.33" rx="7.56" fill="#C8CDD4" opacity="0.96" /><rect class="module" x="674" y="332.248" width="18" height="73.505" rx="7.56" fill="#C8CDD4" opacity="0.96" /><rect class="module" x="710" y="306.931" width="18" height="124.137" rx="7.56" fill="#C8CDD4" opacity="0.96" /><rect class="module" x="746" y="273.198" width="18" height="191.604" rx="7.56" fill="#C8CDD4" opacity="0.96" /><rect class="module" x="789.65" y="186.311" width="20.7" height="365.379" rx="8.694" fill="url(#legacy-hero-hero-legacy-rsn-v1-metal)" opacity="0.96" /><rect class="module-accent" x="836" y="252.831" width="18" height="232.339" rx="7.56" fill="url(#legacy-hero-hero-legacy-rsn-v1-accent)" opacity="0.96" /><rect class="module-accent" x="872" y="288.119" width="18" height="161.761" rx="7.56" fill="url(#legacy-hero-hero-legacy-rsn-v1-accent)" opacity="0.96" /><rect class="module-accent" x="908" y="315.445" width="18" height="107.11" rx="7.56" fill="url(#legacy-hero-hero-legacy-rsn-v1-accent)" opacity="0.96" /><rect class="module" x="944" y="341.11" width="18" height="55.781" rx="7.56" fill="#C8CDD4" opacity="0.96" /><circle class="module" cx="993.5" cy="369" r="7.92" fill="#C8CDD4" opacity="0.72" /><rect x="793.7" y="180" width="12.6" height="378" rx="4.41" fill="#FFFFFF" opacity="0.98" /></g><g data-layer="lockup">
    <g data-layer="wordmark" data-font="newsreader-700" fill="#FFFFFF"><path d="M236.59 679.86L229.39 719.24L225.14 719.24L215.57 713.34L171.72 713.34L171.79 703.04L219.82 703.04L212.83 707.08L230.98 679L236.59 679.86M194.62 620.1L183.74 624.2L183.74 713.34L149.26 713.34L149.26 709.24L160.13 705.13L160.13 624.2L149.26 620.1L149.26 616L194.62 616L194.62 620.1" /><path d="M273.89 647.1L273.89 647.1Q282.89 647.1 289.08 650.74Q295.27 654.37 298.69 661.36Q302.11 668.34 302.76 678.42L302.76 678.42L255.31 678.42L255.31 671.51L291.67 669.85L282.89 673.81Q282.67 667.4 281.45 663.3Q280.22 659.2 277.96 657.18Q275.69 655.16 272.3 655.16L272.3 655.16Q268.78 655.16 266.11 657.11Q263.45 659.05 261.94 663.66Q260.42 668.27 260.42 676.4L260.42 676.4Q260.42 684.4 263.12 689.76Q265.82 695.12 270.86 697.82Q275.9 700.52 282.96 700.52L282.96 700.52Q286.27 700.52 289.22 700.02Q292.18 699.52 294.98 698.4Q297.79 697.28 300.67 695.48L300.67 695.48L302.76 699.95Q298.3 704.56 293.65 708.01Q289.01 711.47 284.04 713.34Q279.07 715.21 273.6 715.21L273.6 715.21Q263.59 715.21 256.18 710.96Q248.76 706.72 244.73 699.3Q240.7 691.88 240.7 682.24L240.7 682.24Q240.7 672.44 244.55 664.45Q248.4 656.46 255.82 651.78Q263.23 647.1 273.89 647.1" /><path d="M339.62 750.71L339.62 750.71Q331.06 750.71 324.79 749.63Q318.53 748.55 314.57 746.46Q310.61 744.37 308.7 741.53Q306.79 738.68 306.79 735.23L306.79 735.23Q306.79 732.49 308.05 730.15Q309.31 727.81 312.52 725.87Q315.72 723.92 321.37 722.3Q327.02 720.68 335.81 719.32L335.81 719.32L342.36 719.32L342.43 720.76Q334.66 721.76 330.52 723.42Q326.38 725.08 324.9 727.31Q323.42 729.54 323.42 732.35L323.42 732.35Q323.42 735.66 325.51 738.07Q327.6 740.48 331.92 741.78Q336.24 743.08 343.01 743.08L343.01 743.08Q349.78 743.08 354.49 741.64Q359.21 740.2 361.69 737.75Q364.18 735.3 364.18 732.35L364.18 732.35Q364.18 730.19 363.02 728.68Q361.87 727.16 359.03 726.08Q356.18 725 350.96 724.28Q345.74 723.56 337.54 723.06L337.54 723.06Q329.4 722.48 324.22 721.01Q319.03 719.53 316.26 717.3Q313.49 715.07 312.44 712.26Q311.4 709.45 311.47 706.36L311.47 706.36Q311.62 700.02 316.66 696.1Q321.7 692.17 331.56 690.95L331.56 690.95L333.94 693.54Q329.62 693.97 327.92 695.34Q326.23 696.71 326.23 698.94L326.23 698.94Q326.23 700.52 327.02 701.6Q327.82 702.68 330.08 703.48Q332.35 704.27 336.82 704.74Q341.28 705.2 348.7 705.56L348.7 705.56Q356.76 706 362.56 707.22Q368.35 708.44 372.02 710.75Q375.7 713.05 377.5 716.54Q379.3 720.04 379.3 724.93L379.3 724.93Q379.3 732.28 374.72 738.11Q370.15 743.94 361.3 747.32Q352.44 750.71 339.62 750.71M339.91 694.84L339.91 694.84Q330.48 694.84 323.78 691.85Q317.09 688.86 313.52 683.46Q309.96 678.06 309.96 671L309.96 671Q309.96 663.59 313.74 658.22Q317.52 652.86 324.32 649.98Q331.13 647.1 339.98 647.1L339.98 647.1Q347.47 647.1 353.05 649.15Q358.63 651.2 362.38 654.66Q366.12 658.12 368.03 662.33Q369.94 666.54 369.94 670.93L369.94 670.93Q369.94 678.28 366.12 683.68Q362.3 689.08 355.57 691.96Q348.84 694.84 339.91 694.84M340.49 687.35L340.49 687.35Q344.66 687.35 347.08 683.86Q349.49 680.36 349.49 672.3L349.49 672.3Q349.49 662.8 346.79 658.62Q344.09 654.44 339.48 654.44L339.48 654.44Q335.3 654.44 332.86 657.9Q330.41 661.36 330.41 669.49L330.41 669.49Q330.41 679 333.14 683.17Q335.88 687.35 340.49 687.35M350.21 653.15L350.21 653.15L348.62 648.25Q354.38 648.9 358.85 648.79Q363.31 648.68 366.73 648.22Q370.15 647.75 372.85 647.28Q375.55 646.81 377.78 646.81L377.78 646.81Q380.16 646.81 381.38 648.18Q382.61 649.55 382.61 652.72L382.61 652.72Q382.61 657.11 380.74 659.09Q378.86 661.07 376.49 661.07L376.49 661.07Q374.26 661.07 372.17 659.63Q370.08 658.19 367.34 656.42Q364.61 654.66 360.54 653.58Q356.47 652.5 350.21 653.15" /><path d="M424.08 673.02L424.08 673.02L424.22 680Q417.89 681.3 413.96 682.78Q410.04 684.25 407.92 685.87Q405.79 687.49 405.04 689.36Q404.28 691.24 404.28 693.54L404.28 693.54Q404.28 698.15 406.3 700.24Q408.31 702.32 411.84 702.32L411.84 702.32Q414.36 702.32 416.34 701.1Q418.32 699.88 419.47 697.86Q420.62 695.84 420.62 693.4L420.62 693.4L420.62 666.04Q420.62 661.36 418.18 658.73Q415.73 656.1 410.26 656.1L410.26 656.1Q407.88 656.1 405.54 656.5Q403.2 656.89 401.26 657.68L401.26 657.68L404.06 652.57Q403.56 656.53 403.02 659.12Q402.48 661.72 401.87 663.34Q401.26 664.96 400.39 666.04L400.39 666.04Q399.24 667.69 397.04 668.56Q394.85 669.42 392.11 669.42L392.11 669.42Q388.58 669.42 386.75 668.12Q384.91 666.83 384.91 664.6L384.91 664.6Q384.91 661.57 387.68 658.51Q390.46 655.45 395.24 652.9Q400.03 650.34 406.15 648.83Q412.27 647.32 418.9 647.32L418.9 647.32Q427.68 647.32 432.65 649.91Q437.62 652.5 439.67 657.14Q441.72 661.79 441.72 668.05L441.72 668.05L441.72 699.3Q441.72 701.17 442.26 702.4Q442.8 703.62 443.84 704.2Q444.89 704.77 446.54 704.77L446.54 704.77Q447.84 704.77 449.46 704.34Q451.08 703.91 452.81 702.97L452.81 702.97L452.81 708.23Q448.92 711.4 444.49 713.3Q440.06 715.21 436.03 715.21L436.03 715.21Q430.99 715.21 427.79 713.27Q424.58 711.32 423.07 707.69Q421.56 704.05 421.34 699.16L421.34 699.16L422.06 698.8Q420.62 704.34 417.85 708.01Q415.08 711.68 411.19 713.45Q407.3 715.21 402.48 715.21L402.48 715.21Q394.13 715.21 389.02 710.93Q383.9 706.64 383.9 698L383.9 698Q383.9 693.83 385.6 690.41Q387.29 686.99 391.61 684Q395.93 681.01 403.81 678.31Q411.7 675.61 424.08 673.02" /><path d="M494.5 647.1L494.5 647.1Q502.13 647.1 506.7 648.65Q511.27 650.2 513.29 652.72Q515.3 655.24 515.3 658.12L515.3 658.12Q515.3 660.85 514.01 662.94Q512.71 665.03 510.55 666.18Q508.39 667.33 505.87 667.33L505.87 667.33Q503.64 667.33 501.59 666.11Q499.54 664.88 497.66 663.12Q495.79 661.36 493.96 659.59Q492.12 657.83 490.39 656.6Q488.66 655.38 486.86 655.38L486.86 655.38Q483.48 655.38 480.64 657.29Q477.79 659.2 476.06 663.37Q474.34 667.55 474.34 674.39L474.34 674.39Q474.34 683.24 476.89 689Q479.45 694.76 484.27 697.61Q489.1 700.45 495.86 700.45L495.86 700.45Q500.69 700.45 504.83 699.23Q508.97 698 513.22 695.34L513.22 695.34L515.38 699.88Q510.34 705.28 505.58 708.66Q500.83 712.04 496.15 713.63Q491.47 715.21 486.79 715.21L486.79 715.21Q476.93 715.21 469.73 711.07Q462.53 706.93 458.57 699.59Q454.61 692.24 454.61 682.81L454.61 682.81Q454.61 675.32 457.27 668.81Q459.94 662.29 465.05 657.43Q470.16 652.57 477.58 649.84Q484.99 647.1 494.5 647.1" /><path d="M547.78 655.74L568.44 700.02L557.42 722.2L524.52 656.6L515.81 653L515.81 648.97L555.91 648.97L555.91 653.08L547.78 655.74M535.39 750.71L535.39 750.71Q530.06 750.71 526.82 748.04Q523.58 745.38 523.58 740.7L523.58 740.7Q523.58 738.25 524.59 736.38Q525.6 734.51 527.04 733.5Q528.48 732.49 529.7 732.49L529.7 732.49Q531 732.49 532.55 733.03Q534.1 733.57 536.08 734.11Q538.06 734.65 540.65 734.65L540.65 734.65Q543.31 734.65 545.33 733.82Q547.34 733 549.11 730.84Q550.87 728.68 552.82 724.72L552.82 724.72L560.3 708.52L563.83 700.6L580.1 655.52L572.47 653.08L572.47 648.97L597.74 648.97L597.74 653.08L590.62 655.67L561.17 726.73Q557.21 736.31 553.46 741.49Q549.72 746.68 545.44 748.69Q541.15 750.71 535.39 750.71" /></g>
    <g data-layer="descriptor-accent" data-font="space-grotesk-500" fill="#FFFFFF"><path d="M163.03 815.97L163.03 815.97Q160.64 815.97 158.79 815.12Q156.94 814.27 155.89 812.62Q154.84 810.96 154.84 808.6L154.84 808.6L154.84 807.84L158.09 807.84L158.09 808.6Q158.09 810.84 159.44 811.97Q160.79 813.09 163.03 813.09L163.03 813.09Q165.31 813.09 166.46 812.13Q167.61 811.18 167.61 809.66L167.61 809.66Q167.61 808.66 167.07 808.02Q166.52 807.39 165.52 807.01Q164.52 806.63 163.12 806.29L163.12 806.29L162 806.02Q159.97 805.54 158.47 804.82Q156.97 804.11 156.15 802.93Q155.33 801.74 155.33 799.89L155.33 799.89Q155.33 798.01 156.25 796.68Q157.18 795.34 158.82 794.62Q160.45 793.89 162.67 793.89L162.67 793.89Q164.88 793.89 166.63 794.65Q168.37 795.41 169.37 796.89Q170.37 798.38 170.37 800.62L170.37 800.62L170.37 801.71L167.13 801.71L167.13 800.62Q167.13 799.26 166.57 798.41Q166 797.56 165 797.16Q164 796.77 162.67 796.77L162.67 796.77Q160.73 796.77 159.65 797.57Q158.57 798.38 158.57 799.8L158.57 799.8Q158.57 800.77 159.04 801.4Q159.51 802.02 160.42 802.41Q161.33 802.81 162.7 803.11L162.7 803.11L163.82 803.38Q165.88 803.84 167.46 804.55Q169.04 805.26 169.95 806.48Q170.86 807.69 170.86 809.6L170.86 809.6Q170.86 811.51 169.9 812.94Q168.95 814.36 167.19 815.16Q165.43 815.97 163.03 815.97" /><path d="M190 815.97L190 815.97Q186.09 815.97 183.78 813.77Q181.48 811.57 181.48 807.42L181.48 807.42L181.48 802.44Q181.48 798.29 183.78 796.09Q186.09 793.89 190 793.89L190 793.89Q193.91 793.89 196.23 796.09Q198.55 798.29 198.55 802.44L198.55 802.44L198.55 807.42Q198.55 811.57 196.23 813.77Q193.91 815.97 190 815.97M190 813.03L190 813.03Q192.52 813.03 193.88 811.56Q195.25 810.08 195.25 807.54L195.25 807.54L195.25 802.32Q195.25 799.77 193.88 798.3Q192.52 796.83 190 796.83L190 796.83Q187.54 796.83 186.15 798.3Q184.75 799.77 184.75 802.32L184.75 802.32L184.75 807.54Q184.75 810.08 186.15 811.56Q187.54 813.03 190 813.03" /><path d="M218.12 815.97L218.12 815.97Q215.6 815.97 213.8 815.06Q212 814.15 211.01 812.44Q210.02 810.72 210.02 808.26L210.02 808.26L210.02 794.31L213.33 794.31L213.33 808.36Q213.33 810.6 214.57 811.81Q215.82 813.03 218.12 813.03L218.12 813.03Q220.43 813.03 221.67 811.81Q222.91 810.6 222.91 808.36L222.91 808.36L222.91 794.31L226.19 794.31L226.19 808.26Q226.19 810.72 225.22 812.44Q224.25 814.15 222.43 815.06Q220.61 815.97 218.12 815.97" /><path d="M241.45 815.54L238.21 815.54L238.21 794.31L244.51 794.31L250.28 813.36L250.76 813.36L250.76 794.31L254.01 794.31L254.01 815.54L247.7 815.54L241.94 796.47L241.45 796.47L241.45 815.54" /><path d="M273.88 815.54L265.39 815.54L265.39 812.63L268.24 812.63L268.24 797.23L265.39 797.23L265.39 794.31L273.88 794.31Q278.13 794.31 280.38 796.47Q282.64 798.62 282.64 802.96L282.64 802.96L282.64 806.93Q282.64 811.27 280.38 813.41Q278.13 815.54 273.88 815.54L273.88 815.54M271.54 797.32L271.54 812.57L273.91 812.57Q276.67 812.57 278 811.18Q279.34 809.78 279.34 807.02L279.34 807.02L279.34 802.84Q279.34 800.05 278 798.68Q276.67 797.32 273.91 797.32L273.91 797.32L271.54 797.32" /></g><g data-layer="descriptor" data-font="space-grotesk-500" fill="#C8CDD4"><path d="M334.68 815.54L326.19 815.54L326.19 812.63L329.04 812.63L329.04 797.23L326.19 797.23L326.19 794.31L334.68 794.31Q338.93 794.31 341.19 796.47Q343.45 798.62 343.45 802.96L343.45 802.96L343.45 806.93Q343.45 811.27 341.19 813.41Q338.93 815.54 334.68 815.54L334.68 815.54M332.35 797.32L332.35 812.57L334.71 812.57Q337.47 812.57 338.81 811.18Q340.14 809.78 340.14 807.02L340.14 807.02L340.14 802.84Q340.14 800.05 338.81 798.68Q337.47 797.32 334.71 797.32L334.71 797.32L332.35 797.32" /><path d="M368.42 815.54L354.89 815.54L354.89 794.31L368.26 794.31L368.26 797.29L358.16 797.29L358.16 803.38L367.41 803.38L367.41 806.35L358.16 806.35L358.16 812.57L368.42 812.57L368.42 815.54" /><path d="M386.8 815.97L386.8 815.97Q384.4 815.97 382.55 815.12Q380.7 814.27 379.66 812.62Q378.61 810.96 378.61 808.6L378.61 808.6L378.61 807.84L381.86 807.84L381.86 808.6Q381.86 810.84 383.21 811.97Q384.56 813.09 386.8 813.09L386.8 813.09Q389.08 813.09 390.23 812.13Q391.38 811.18 391.38 809.66L391.38 809.66Q391.38 808.66 390.83 808.02Q390.29 807.39 389.29 807.01Q388.29 806.63 386.89 806.29L386.89 806.29L385.77 806.02Q383.74 805.54 382.24 804.82Q380.74 804.11 379.92 802.93Q379.1 801.74 379.1 799.89L379.1 799.89Q379.1 798.01 380.02 796.68Q380.95 795.34 382.59 794.62Q384.22 793.89 386.44 793.89L386.44 793.89Q388.65 793.89 390.39 794.65Q392.14 795.41 393.14 796.89Q394.14 798.38 394.14 800.62L394.14 800.62L394.14 801.71L390.9 801.71L390.9 800.62Q390.9 799.26 390.33 798.41Q389.77 797.56 388.77 797.16Q387.77 796.77 386.44 796.77L386.44 796.77Q384.5 796.77 383.42 797.57Q382.34 798.38 382.34 799.8L382.34 799.8Q382.34 800.77 382.81 801.4Q383.28 802.02 384.19 802.41Q385.1 802.81 386.47 803.11L386.47 803.11L387.59 803.38Q389.65 803.84 391.23 804.55Q392.81 805.26 393.72 806.48Q394.63 807.69 394.63 809.6L394.63 809.6Q394.63 811.51 393.67 812.94Q392.72 814.36 390.96 815.16Q389.2 815.97 386.8 815.97" /><path d="M409.07 815.54L405.79 815.54L405.79 794.31L409.07 794.31L409.07 815.54" /><path d="M428.61 815.97L428.61 815.97Q426.33 815.97 424.54 814.98Q422.75 814 421.72 812.09Q420.69 810.18 420.69 807.42L420.69 807.42L420.69 802.44Q420.69 798.29 422.97 796.09Q425.24 793.89 429.12 793.89L429.12 793.89Q432.94 793.89 435.01 795.97Q437.07 798.04 437.07 801.53L437.07 801.53L437.07 801.68L433.82 801.68L433.82 801.44Q433.82 800.14 433.31 799.09Q432.79 798.04 431.76 797.44Q430.73 796.83 429.12 796.83L429.12 796.83Q426.7 796.83 425.33 798.3Q423.97 799.77 423.97 802.38L423.97 802.38L423.97 807.48Q423.97 810.05 425.33 811.56Q426.7 813.06 429.15 813.06L429.15 813.06Q431.58 813.06 432.7 811.72Q433.82 810.39 433.82 808.26L433.82 808.26L433.82 807.87L428.12 807.87L428.12 805.05L437.07 805.05L437.07 815.54L434.04 815.54L434.04 813.39L433.55 813.39Q433.28 813.97 432.75 814.57Q432.22 815.18 431.23 815.57Q430.24 815.97 428.61 815.97" /><path d="M452.27 815.54L449.02 815.54L449.02 794.31L455.33 794.31L461.1 813.36L461.58 813.36L461.58 794.31L464.83 794.31L464.83 815.54L458.52 815.54L452.75 796.47L452.27 796.47L452.27 815.54" /></g>
    <text opacity="0" x="144" y="751.5">Legacy</text>
    <text opacity="0" x="144" y="824.4">SOUND DESIGN</text>
  </g></svg>