<svg xmlns="http://www.w3.org/2000/svg" width="1200" height="360" viewBox="0 0 1200 360" role="img" aria-labelledby="legacy-horizontal-lockup-horizontal-lockup-legacy-rsn-v1-title legacy-horizontal-lockup-horizontal-lockup-legacy-rsn-v1-desc" data-engine="legacy-resonance" data-surface="horizontal-lockup" class="motion-full"><title id="legacy-horizontal-lockup-horizontal-lockup-legacy-rsn-v1-title">Legacy Sound Design</title><desc id="legacy-horizontal-lockup-horizontal-lockup-legacy-rsn-v1-desc">Deterministic signal-constellation identity mark for Legacy Sound Design.</desc><defs>
      <linearGradient id="legacy-horizontal-lockup-horizontal-lockup-legacy-rsn-v1-field" x1="0%" y1="0%" x2="100%" y2="100%">
        <stop offset="0%" stop-color="#07090D" />
        <stop offset="58%" stop-color="#0B1A2C" />
        <stop offset="100%" stop-color="#07090D" />
      </linearGradient>
      <linearGradient id="legacy-horizontal-lockup-horizontal-lockup-legacy-rsn-v1-accent" x1="0%" y1="0%" x2="100%" y2="100%">
        <stop offset="0%" stop-color="#7894D4" />
        <stop offset="54%" stop-color="#315EA8" />
        <stop offset="100%" stop-color="#0B1A2C" />
      </linearGradient>
      <linearGradient id="legacy-horizontal-lockup-horizontal-lockup-legacy-rsn-v1-metal" x1="0%" y1="0%" x2="100%" y2="100%">
        <stop offset="0%" stop-color="#F7F8FA" />
        <stop offset="52%" stop-color="#C9D0D8" />
        <stop offset="100%" stop-color="#F7F8FA" />
      </linearGradient>
      <style>
        text { font-family: "Space Grotesk", Inter, "Avenir Next", "Helvetica Neue", Arial, sans-serif; }
        @media (prefers-reduced-motion: reduce) { .pulse, .trail { animation: none !important; } }
        
      .pulse { animation: legacyPulse 4200ms ease-in-out infinite; transform-origin: center; }
      .module-accent { animation: legacyAccent 3600ms ease-in-out infinite; transform-origin: center; }
      @keyframes legacyPulse { 0%,100% { opacity: .18; transform: scale(.985); } 50% { opacity: .42; transform: scale(1.025); } }
      @keyframes legacyAccent { 0%,100% { opacity: .82; } 50% { opacity: 1; } }
      </style>
    </defs><g data-layer="resonance-field"><circle class="pulse" cx="180" cy="180" r="104.329" fill="none" stroke="#315EA8" stroke-width="0.758" opacity="0.092" /><circle class="pulse" cx="180" cy="180" r="110.738" fill="none" stroke="#7A8492" stroke-width="0.758" opacity="0.085" /><circle class="pulse" cx="180" cy="180" r="117.148" fill="none" stroke="#315EA8" stroke-width="0.758" opacity="0.078" /><circle class="pulse" cx="180" cy="180" r="123.557" fill="none" stroke="#7A8492" stroke-width="0.758" opacity="0.071" /><circle class="pulse" cx="180" cy="180" r="129.966" fill="none" stroke="#315EA8" stroke-width="0.758" opacity="0.064" /></g><g data-layer="motherform"><circle class="module" cx="56.16" cy="180" r="5.069" fill="#C9D0D8" opacity="0.72" /><rect class="module" x="76.32" y="169.857" width="11.52" height="20.286" rx="4.838" fill="#C9D0D8" opacity="0.96" /><rect class="module" x="99.36" y="156.666" width="11.52" height="46.667" rx="4.838" fill="#C9D0D8" opacity="0.96" /><rect class="module" x="122.4" y="139.581" width="11.52" height="80.837" rx="4.838" fill="#C9D0D8" opacity="0.96" /><rect class="module" x="145.44" y="118.863" width="11.52" height="122.274" rx="4.838" fill="#C9D0D8" opacity="0.96" /><rect class="module" x="173.376" y="63.206" width="13.248" height="233.589" rx="5.564" fill="url(#legacy-horizontal-lockup-horizontal-lockup-legacy-rsn-v1-metal)" opacity="0.96" /><rect class="module-accent" x="203.04" y="103.947" width="11.52" height="152.106" rx="4.838" fill="url(#legacy-horizontal-lockup-horizontal-lockup-legacy-rsn-v1-accent)" opacity="0.96" /><rect class="module-accent" x="226.08" y="127.867" width="11.52" height="104.265" rx="4.838" fill="url(#legacy-horizontal-lockup-horizontal-lockup-legacy-rsn-v1-accent)" opacity="0.96" /><rect class="module-accent" x="249.12" y="146.688" width="11.52" height="66.624" rx="4.838" fill="url(#legacy-horizontal-lockup-horizontal-lockup-legacy-rsn-v1-accent)" opacity="0.96" /><rect class="module" x="272.16" y="162.444" width="11.52" height="35.111" rx="4.838" fill="#C9D0D8" opacity="0.96" /><circle class="module" cx="303.84" cy="180" r="5.069" fill="#C9D0D8" opacity="0.72" /><rect x="175.968" y="59.04" width="8.064" height="241.92" rx="2.822" fill="#F7F8FA" opacity="0.98" /></g><g data-layer="lockup">
      <rect x="390" y="82.8" width="2.4" height="194.4" fill="#7A8492" opacity="0.58" />
      <g data-layer="wordmark" data-font="newsreader-700" fill="#F7F8FA"><path d="M509.76 133.48L504.18 164L500.89 164L493.47 159.43L459.48 159.43L459.54 151.45L496.76 151.45L491.34 154.57L505.41 132.81L509.76 133.48M477.23 87.16L468.8 90.35L468.8 159.43L442.07 159.43L442.07 156.25L450.5 153.06L450.5 90.35L442.07 87.16L442.07 83.98L477.23 83.98L477.23 87.16" /><path d="M538.66 108.09L538.66 108.09Q545.64 108.09 550.44 110.91Q555.24 113.73 557.89 119.14Q560.54 124.55 561.04 132.36L561.04 132.36L524.27 132.36L524.27 127.01L552.45 125.72L545.64 128.79Q545.47 123.83 544.52 120.64Q543.57 117.46 541.82 115.9Q540.06 114.34 537.44 114.34L537.44 114.34Q534.7 114.34 532.64 115.85Q530.57 117.35 529.4 120.92Q528.23 124.5 528.23 130.8L528.23 130.8Q528.23 136.99 530.32 141.15Q532.41 145.31 536.32 147.4Q540.23 149.49 545.69 149.49L545.69 149.49Q548.26 149.49 550.55 149.1Q552.84 148.71 555.01 147.85Q557.19 146.98 559.42 145.59L559.42 145.59L561.04 149.05Q557.58 152.62 553.98 155.3Q550.38 157.98 546.53 159.43Q542.68 160.88 538.44 160.88L538.44 160.88Q530.68 160.88 524.94 157.58Q519.19 154.29 516.06 148.54Q512.94 142.8 512.94 135.32L512.94 135.32Q512.94 127.73 515.92 121.54Q518.91 115.34 524.66 111.72Q530.4 108.09 538.66 108.09" /><path d="M589.61 188.39L589.61 188.39Q582.97 188.39 578.11 187.55Q573.26 186.71 570.19 185.09Q567.12 183.48 565.64 181.27Q564.16 179.07 564.16 176.39L564.16 176.39Q564.16 174.27 565.14 172.46Q566.12 170.64 568.6 169.14Q571.08 167.63 575.46 166.37Q579.84 165.12 586.65 164.06L586.65 164.06L591.73 164.06L591.78 165.17Q585.76 165.95 582.55 167.24Q579.34 168.52 578.2 170.25Q577.05 171.98 577.05 174.16L577.05 174.16Q577.05 176.72 578.67 178.59Q580.29 180.46 583.64 181.47Q586.99 182.47 592.23 182.47L592.23 182.47Q597.48 182.47 601.13 181.36Q604.79 180.24 606.71 178.34Q608.64 176.44 608.64 174.16L608.64 174.16Q608.64 172.48 607.74 171.31Q606.85 170.14 604.65 169.3Q602.44 168.47 598.4 167.91Q594.35 167.35 587.99 166.96L587.99 166.96Q581.68 166.51 577.67 165.37Q573.65 164.22 571.5 162.49Q569.35 160.77 568.54 158.59Q567.73 156.41 567.79 154.01L567.79 154.01Q567.9 149.1 571.81 146.06Q575.71 143.02 583.36 142.07L583.36 142.07L585.2 144.08Q581.85 144.42 580.54 145.48Q579.23 146.54 579.23 148.27L579.23 148.27Q579.23 149.49 579.84 150.33Q580.46 151.17 582.22 151.78Q583.97 152.4 587.43 152.76Q590.89 153.12 596.64 153.4L596.64 153.4Q602.89 153.73 607.38 154.68Q611.87 155.63 614.72 157.42Q617.56 159.2 618.96 161.91Q620.35 164.62 620.35 168.41L620.35 168.41Q620.35 174.1 616.81 178.62Q613.27 183.14 606.4 185.76Q599.54 188.39 589.61 188.39M589.83 145.09L589.83 145.09Q582.52 145.09 577.33 142.77Q572.14 140.45 569.38 136.27Q566.62 132.08 566.62 126.62L566.62 126.62Q566.62 120.87 569.55 116.71Q572.48 112.55 577.75 110.32Q583.02 108.09 589.89 108.09L589.89 108.09Q595.69 108.09 600.02 109.68Q604.34 111.27 607.24 113.95Q610.14 116.63 611.62 119.89Q613.1 123.16 613.1 126.56L613.1 126.56Q613.1 132.25 610.14 136.44Q607.19 140.62 601.97 142.85Q596.75 145.09 589.83 145.09M590.28 139.28L590.28 139.28Q593.51 139.28 595.38 136.58Q597.25 133.87 597.25 127.62L597.25 127.62Q597.25 120.25 595.16 117.02Q593.07 113.78 589.5 113.78L589.5 113.78Q586.26 113.78 584.36 116.46Q582.47 119.14 582.47 125.44L582.47 125.44Q582.47 132.81 584.59 136.05Q586.71 139.28 590.28 139.28M597.81 112.78L597.81 112.78L596.58 108.98Q601.05 109.48 604.51 109.4Q607.97 109.32 610.62 108.95Q613.27 108.59 615.36 108.23Q617.45 107.87 619.18 107.87L619.18 107.87Q621.02 107.87 621.97 108.93Q622.92 109.99 622.92 112.44L622.92 112.44Q622.92 115.85 621.47 117.38Q620.02 118.92 618.18 118.92L618.18 118.92Q616.45 118.92 614.83 117.8Q613.21 116.68 611.09 115.32Q608.97 113.95 605.82 113.11Q602.67 112.27 597.81 112.78" /><path d="M655.06 128.18L655.06 128.18L655.17 133.59Q650.26 134.59 647.22 135.74Q644.18 136.88 642.53 138.14Q640.89 139.39 640.3 140.84Q639.72 142.3 639.72 144.08L639.72 144.08Q639.72 147.65 641.28 149.27Q642.84 150.89 645.58 150.89L645.58 150.89Q647.53 150.89 649.06 149.94Q650.6 148.99 651.49 147.43Q652.38 145.87 652.38 143.97L652.38 143.97L652.38 122.77Q652.38 119.14 650.49 117.1Q648.59 115.06 644.35 115.06L644.35 115.06Q642.51 115.06 640.69 115.37Q638.88 115.68 637.37 116.29L637.37 116.29L639.55 112.33Q639.16 115.4 638.74 117.41Q638.32 119.42 637.85 120.67Q637.37 121.93 636.7 122.77L636.7 122.77Q635.81 124.05 634.11 124.72Q632.41 125.39 630.29 125.39L630.29 125.39Q627.55 125.39 626.13 124.38Q624.71 123.38 624.71 121.65L624.71 121.65Q624.71 119.31 626.86 116.93Q629 114.56 632.71 112.58Q636.42 110.6 641.17 109.43Q645.91 108.26 651.04 108.26L651.04 108.26Q657.85 108.26 661.7 110.27Q665.55 112.27 667.14 115.87Q668.73 119.47 668.73 124.33L668.73 124.33L668.73 148.54Q668.73 150 669.15 150.94Q669.57 151.89 670.38 152.34Q671.19 152.79 672.47 152.79L672.47 152.79Q673.48 152.79 674.73 152.45Q675.99 152.12 677.33 151.39L677.33 151.39L677.33 155.46Q674.31 157.92 670.88 159.4Q667.45 160.88 664.32 160.88L664.32 160.88Q660.42 160.88 657.94 159.37Q655.45 157.86 654.28 155.05Q653.11 152.23 652.94 148.43L652.94 148.43L653.5 148.15Q652.38 152.45 650.24 155.3Q648.09 158.14 645.07 159.51Q642.06 160.88 638.32 160.88L638.32 160.88Q631.85 160.88 627.89 157.56Q623.93 154.24 623.93 147.54L623.93 147.54Q623.93 144.3 625.24 141.65Q626.55 139 629.9 136.69Q633.24 134.37 639.35 132.28Q645.46 130.19 655.06 128.18" /><path d="M709.63 108.09L709.63 108.09Q715.55 108.09 719.09 109.29Q722.64 110.49 724.2 112.44Q725.76 114.4 725.76 116.63L725.76 116.63Q725.76 118.75 724.76 120.37Q723.75 121.98 722.08 122.88Q720.4 123.77 718.45 123.77L718.45 123.77Q716.72 123.77 715.13 122.82Q713.54 121.87 712.09 120.51Q710.64 119.14 709.22 117.77Q707.79 116.4 706.45 115.46Q705.11 114.51 703.72 114.51L703.72 114.51Q701.1 114.51 698.89 115.99Q696.69 117.46 695.35 120.7Q694.01 123.94 694.01 129.24L694.01 129.24Q694.01 136.1 695.99 140.57Q697.97 145.03 701.71 147.23Q705.45 149.44 710.69 149.44L710.69 149.44Q714.43 149.44 717.64 148.49Q720.85 147.54 724.14 145.48L724.14 145.48L725.82 148.99Q721.91 153.18 718.23 155.8Q714.54 158.42 710.92 159.65Q707.29 160.88 703.66 160.88L703.66 160.88Q696.02 160.88 690.44 157.67Q684.86 154.46 681.79 148.77Q678.72 143.08 678.72 135.77L678.72 135.77Q678.72 129.96 680.79 124.91Q682.85 119.86 686.81 116.1Q690.77 112.33 696.52 110.21Q702.27 108.09 709.63 108.09" /><path d="M750.93 114.79L766.94 149.1L758.4 166.29L732.9 115.46L726.15 112.67L726.15 109.54L757.23 109.54L757.23 112.72L750.93 114.79M741.33 188.39L741.33 188.39Q737.2 188.39 734.69 186.32Q732.18 184.26 732.18 180.63L732.18 180.63Q732.18 178.73 732.96 177.28Q733.74 175.83 734.86 175.05Q735.97 174.27 736.92 174.27L736.92 174.27Q737.92 174.27 739.12 174.69Q740.32 175.11 741.86 175.52Q743.39 175.94 745.4 175.94L745.4 175.94Q747.47 175.94 749.03 175.3Q750.59 174.66 751.96 172.99Q753.33 171.31 754.83 168.24L754.83 168.24L760.64 155.69L763.37 149.55L775.98 114.62L770.07 112.72L770.07 109.54L789.65 109.54L789.65 112.72L784.13 114.73L761.31 169.8Q758.24 177.23 755.33 181.24Q752.43 185.26 749.11 186.82Q745.79 188.39 741.33 188.39" /></g>
      <g data-layer="descriptor-accent" data-font="space-grotesk-500" fill="#315EA8"><path d="M449.63 247.98L449.63 247.98Q447.67 247.98 446.15 247.28Q444.64 246.59 443.78 245.23Q442.92 243.88 442.92 241.94L442.92 241.94L442.92 241.32L445.58 241.32L445.58 241.94Q445.58 243.78 446.69 244.7Q447.79 245.62 449.63 245.62L449.63 245.62Q451.49 245.62 452.43 244.84Q453.38 244.06 453.38 242.81L453.38 242.81Q453.38 241.99 452.93 241.47Q452.48 240.95 451.66 240.64Q450.84 240.33 449.7 240.06L449.7 240.06L448.78 239.83Q447.12 239.44 445.89 238.85Q444.66 238.27 443.99 237.3Q443.32 236.33 443.32 234.82L443.32 234.82Q443.32 233.28 444.08 232.19Q444.84 231.1 446.18 230.5Q447.52 229.9 449.33 229.9L449.33 229.9Q451.14 229.9 452.57 230.52Q454 231.14 454.82 232.36Q455.64 233.58 455.64 235.42L455.64 235.42L455.64 236.31L452.98 236.31L452.98 235.42Q452.98 234.3 452.52 233.6Q452.06 232.91 451.24 232.58Q450.42 232.26 449.33 232.26L449.33 232.26Q447.74 232.26 446.86 232.92Q445.98 233.58 445.98 234.74L445.98 234.74Q445.98 235.54 446.36 236.05Q446.75 236.56 447.49 236.88Q448.24 237.2 449.35 237.45L449.35 237.45L450.27 237.67Q451.96 238.05 453.25 238.63Q454.54 239.21 455.29 240.21Q456.03 241.2 456.03 242.76L456.03 242.76Q456.03 244.33 455.25 245.5Q454.47 246.66 453.03 247.32Q451.59 247.98 449.63 247.98" /><path d="M472.34 247.98L472.34 247.98Q469.13 247.98 467.25 246.18Q465.36 244.38 465.36 240.98L465.36 240.98L465.36 236.9Q465.36 233.5 467.25 231.7Q469.13 229.9 472.34 229.9L472.34 229.9Q475.54 229.9 477.44 231.7Q479.34 233.5 479.34 236.9L479.34 236.9L479.34 240.98Q479.34 244.38 477.44 246.18Q475.54 247.98 472.34 247.98M472.34 245.57L472.34 245.57Q474.4 245.57 475.52 244.37Q476.63 243.16 476.63 241.08L476.63 241.08L476.63 236.81Q476.63 234.72 475.52 233.52Q474.4 232.31 472.34 232.31L472.34 232.31Q470.33 232.31 469.18 233.52Q468.04 234.72 468.04 236.81L468.04 236.81L468.04 241.08Q468.04 243.16 469.18 244.37Q470.33 245.57 472.34 245.57" /><path d="M495.99 247.98L495.99 247.98Q493.93 247.98 492.45 247.23Q490.98 246.49 490.17 245.09Q489.36 243.68 489.36 241.67L489.36 241.67L489.36 230.25L492.07 230.25L492.07 241.75Q492.07 243.58 493.09 244.58Q494.1 245.57 495.99 245.57L495.99 245.57Q497.88 245.57 498.9 244.58Q499.91 243.58 499.91 241.75L499.91 241.75L499.91 230.25L502.6 230.25L502.6 241.67Q502.6 243.68 501.8 245.09Q501.01 246.49 499.52 247.23Q498.03 247.98 495.99 247.98" /><path d="M515.72 247.63L513.07 247.63L513.07 230.25L518.23 230.25L522.95 245.84L523.34 245.84L523.34 230.25L526 230.25L526 247.63L520.84 247.63L516.12 232.01L515.72 232.01L515.72 247.63" /><path d="M542.9 247.63L535.95 247.63L535.95 245.25L538.28 245.25L538.28 232.63L535.95 232.63L535.95 230.25L542.9 230.25Q546.38 230.25 548.23 232.01Q550.08 233.78 550.08 237.33L550.08 237.33L550.08 240.58Q550.08 244.13 548.23 245.88Q546.38 247.63 542.9 247.63L542.9 247.63M540.99 232.71L540.99 245.2L542.93 245.2Q545.19 245.2 546.28 244.06Q547.37 242.91 547.37 240.65L547.37 240.65L547.37 237.23Q547.37 234.94 546.28 233.83Q545.19 232.71 542.93 232.71L542.93 232.71L540.99 232.71" /></g><g data-layer="descriptor" data-font="space-grotesk-500" fill="#C9D0D8"><path d="M592.68 247.63L585.72 247.63L585.72 245.25L588.06 245.25L588.06 232.63L585.72 232.63L585.72 230.25L592.68 230.25Q596.15 230.25 598 232.01Q599.85 233.78 599.85 237.33L599.85 237.33L599.85 240.58Q599.85 244.13 598 245.88Q596.15 247.63 592.68 247.63L592.68 247.63M590.76 232.71L590.76 245.2L592.7 245.2Q594.96 245.2 596.05 244.06Q597.14 242.91 597.14 240.65L597.14 240.65L597.14 237.23Q597.14 234.94 596.05 233.83Q594.96 232.71 592.7 232.71L592.7 232.71L590.76 232.71" /><path d="M620.92 247.63L609.85 247.63L609.85 230.25L620.8 230.25L620.8 232.68L612.53 232.68L612.53 237.67L620.1 237.67L620.1 240.11L612.53 240.11L612.53 245.2L620.92 245.2L620.92 247.63" /><path d="M636.61 247.98L636.61 247.98Q634.65 247.98 633.13 247.28Q631.62 246.59 630.76 245.23Q629.9 243.88 629.9 241.94L629.9 241.94L629.9 241.32L632.56 241.32L632.56 241.94Q632.56 243.78 633.66 244.7Q634.77 245.62 636.61 245.62L636.61 245.62Q638.47 245.62 639.41 244.84Q640.36 244.06 640.36 242.81L640.36 242.81Q640.36 241.99 639.91 241.47Q639.46 240.95 638.64 240.64Q637.82 240.33 636.68 240.06L636.68 240.06L635.76 239.83Q634.1 239.44 632.87 238.85Q631.64 238.27 630.97 237.3Q630.3 236.33 630.3 234.82L630.3 234.82Q630.3 233.28 631.06 232.19Q631.82 231.1 633.16 230.5Q634.5 229.9 636.31 229.9L636.31 229.9Q638.12 229.9 639.55 230.52Q640.98 231.14 641.8 232.36Q642.62 233.58 642.62 235.42L642.62 235.42L642.62 236.31L639.96 236.31L639.96 235.42Q639.96 234.3 639.5 233.6Q639.04 232.91 638.22 232.58Q637.4 232.26 636.31 232.26L636.31 232.26Q634.72 232.26 633.84 232.92Q632.96 233.58 632.96 234.74L632.96 234.74Q632.96 235.54 633.34 236.05Q633.73 236.56 634.47 236.88Q635.22 237.2 636.33 237.45L636.33 237.45L637.25 237.67Q638.94 238.05 640.23 238.63Q641.52 239.21 642.27 240.21Q643.01 241.2 643.01 242.76L643.01 242.76Q643.01 244.33 642.23 245.5Q641.45 246.66 640.01 247.32Q638.57 247.98 636.61 247.98" /><path d="M655.47 247.63L652.79 247.63L652.79 230.25L655.47 230.25L655.47 247.63" /><path d="M672.1 247.98L672.1 247.98Q670.23 247.98 668.77 247.17Q667.3 246.36 666.46 244.8Q665.62 243.24 665.62 240.98L665.62 240.98L665.62 236.9Q665.62 233.5 667.48 231.7Q669.34 229.9 672.52 229.9L672.52 229.9Q675.65 229.9 677.34 231.6Q679.02 233.3 679.02 236.16L679.02 236.16L679.02 236.28L676.37 236.28L676.37 236.09Q676.37 235.02 675.94 234.16Q675.52 233.3 674.68 232.81Q673.83 232.31 672.52 232.31L672.52 232.31Q670.53 232.31 669.42 233.52Q668.3 234.72 668.3 236.86L668.3 236.86L668.3 241.03Q668.3 243.14 669.42 244.37Q670.53 245.59 672.54 245.59L672.54 245.59Q674.53 245.59 675.45 244.5Q676.37 243.41 676.37 241.67L676.37 241.67L676.37 241.35L671.7 241.35L671.7 239.04L679.02 239.04L679.02 247.63L676.54 247.63L676.54 245.87L676.14 245.87Q675.92 246.34 675.49 246.84Q675.05 247.33 674.24 247.66Q673.44 247.98 672.1 247.98" /><path d="M692.1 247.63L689.44 247.63L689.44 230.25L694.61 230.25L699.33 245.84L699.72 245.84L699.72 230.25L702.38 230.25L702.38 247.63L697.22 247.63L692.5 232.01L692.1 232.01L692.1 247.63" /></g>
      <text opacity="0" x="438" y="172.8">Legacy</text>
      <text opacity="0" x="438" y="237.6">SOUND DESIGN</text>
    </g></svg>