<svg xmlns="http://www.w3.org/2000/svg" width="1080" height="1350" viewBox="0 0 1080 1350" role="img" aria-labelledby="legacy-poster-poster-legacy-rsn-v1-title legacy-poster-poster-legacy-rsn-v1-desc" data-engine="legacy-resonance" data-surface="poster" class="motion-static"><title id="legacy-poster-poster-legacy-rsn-v1-title">Legacy Sound Design</title><desc id="legacy-poster-poster-legacy-rsn-v1-desc">Deterministic signal-constellation identity mark for Legacy Sound Design.</desc><defs>
      <linearGradient id="legacy-poster-poster-legacy-rsn-v1-field" x1="0%" y1="0%" x2="100%" y2="100%">
        <stop offset="0%" stop-color="#050608" />
        <stop offset="58%" stop-color="#101216" />
        <stop offset="100%" stop-color="#050608" />
      </linearGradient>
      <linearGradient id="legacy-poster-poster-legacy-rsn-v1-accent" x1="0%" y1="0%" x2="100%" y2="100%">
        <stop offset="0%" stop-color="#D9DDE3" />
        <stop offset="54%" stop-color="#FFFFFF" />
        <stop offset="100%" stop-color="#101216" />
      </linearGradient>
      <linearGradient id="legacy-poster-poster-legacy-rsn-v1-metal" x1="0%" y1="0%" x2="100%" y2="100%">
        <stop offset="0%" stop-color="#FFFFFF" />
        <stop offset="52%" stop-color="#C8CDD4" />
        <stop offset="100%" stop-color="#FFFFFF" />
      </linearGradient>
      <style>
        text { font-family: "Space Grotesk", Inter, "Avenir Next", "Helvetica Neue", Arial, sans-serif; }
        @media (prefers-reduced-motion: reduce) { .pulse, .trail { animation: none !important; } }
        
      </style>
    </defs><rect width="100%" height="100%" rx="0" fill="url(#legacy-poster-poster-legacy-rsn-v1-field)" /><g data-layer="resonance-field"><circle class="pulse" cx="540" cy="486" r="194.46" fill="none" stroke="#FFFFFF" stroke-width="1.172" opacity="0.093" /><circle class="pulse" cx="540" cy="486" r="205.32" fill="none" stroke="#7F8793" stroke-width="1.172" opacity="0.087" /><circle class="pulse" cx="540" cy="486" r="216.18" fill="none" stroke="#FFFFFF" stroke-width="1.172" opacity="0.081" /><circle class="pulse" cx="540" cy="486" r="227.039" fill="none" stroke="#7F8793" stroke-width="1.172" opacity="0.076" /><circle class="pulse" cx="540" cy="486" r="237.899" fill="none" stroke="#FFFFFF" stroke-width="1.172" opacity="0.07" /><circle class="pulse" cx="540" cy="486" r="248.759" fill="none" stroke="#7F8793" stroke-width="1.172" opacity="0.064" /><path d="M 108 864 L 486 864 l 12.96 -24.3 l 17.28 67.5 l 12.96 -43.2 L 972 864" fill="none" stroke="#7F8793" stroke-width="0.879" opacity="0.5" /></g><g data-layer="motherform"><circle class="module" cx="307.8" cy="486" r="9.504" fill="#C8CDD4" opacity="0.72" /><rect class="module" x="345.6" y="466.894" width="21.6" height="38.213" rx="9.072" fill="#C8CDD4" opacity="0.96" /><rect class="module" x="388.8" y="443.775" width="21.6" height="84.449" rx="9.072" fill="#C8CDD4" opacity="0.96" /><rect class="module" x="432" y="408.449" width="21.6" height="155.102" rx="9.072" fill="#C8CDD4" opacity="0.96" /><rect class="module" x="475.2" y="372.484" width="21.6" height="227.032" rx="9.072" fill="#C8CDD4" opacity="0.96" /><rect class="module" x="527.58" y="257.541" width="24.84" height="456.919" rx="10.433" fill="url(#legacy-poster-poster-legacy-rsn-v1-metal)" opacity="0.96" /><rect class="module-accent" x="583.2" y="341.068" width="21.6" height="289.864" rx="9.072" fill="url(#legacy-poster-poster-legacy-rsn-v1-accent)" opacity="0.96" /><rect class="module-accent" x="626.4" y="388.428" width="21.6" height="195.145" rx="9.072" fill="url(#legacy-poster-poster-legacy-rsn-v1-accent)" opacity="0.96" /><rect class="module-accent" x="669.6" y="422.829" width="21.6" height="126.342" rx="9.072" fill="url(#legacy-poster-poster-legacy-rsn-v1-accent)" opacity="0.96" /><rect class="module" x="712.8" y="453.693" width="21.6" height="64.615" rx="9.072" fill="#C8CDD4" opacity="0.96" /><circle class="module" cx="772.2" cy="486" r="9.504" fill="#C8CDD4" opacity="0.72" /><rect x="532.44" y="259.2" width="15.12" height="453.6" rx="5.292" fill="#FFFFFF" opacity="0.98" /></g><g data-layer="lockup">
    <g data-layer="wordmark" data-font="newsreader-700" fill="#FFFFFF"><path d="M186.09 980.72L179.18 1018.52L175.1 1018.52L165.91 1012.86L123.81 1012.86L123.88 1002.97L169.98 1002.97L163.28 1006.84L180.7 979.89L186.09 980.72M145.79 923.35L135.35 927.29L135.35 1012.86L102.25 1012.86L102.25 1008.92L112.68 1004.98L112.68 927.29L102.25 923.35L102.25 919.41L145.79 919.41L145.79 923.35" /><path d="M221.89 949.27L221.89 949.27Q230.53 949.27 236.48 952.76Q242.42 956.25 245.7 962.95Q248.99 969.66 249.61 979.33L249.61 979.33L204.06 979.33L204.06 972.7L238.97 971.11L230.53 974.91Q230.33 968.76 229.15 964.82Q227.98 960.88 225.8 958.94Q223.62 957.01 220.37 957.01L220.37 957.01Q216.98 957.01 214.43 958.87Q211.87 960.74 210.42 965.16Q208.97 969.59 208.97 977.4L208.97 977.4Q208.97 985.07 211.56 990.22Q214.15 995.37 218.99 997.96Q223.83 1000.55 230.6 1000.55L230.6 1000.55Q233.78 1000.55 236.62 1000.07Q239.45 999.59 242.14 998.51Q244.84 997.44 247.61 995.71L247.61 995.71L249.61 1000Q245.32 1004.42 240.87 1007.74Q236.41 1011.06 231.64 1012.86Q226.87 1014.65 221.62 1014.65L221.62 1014.65Q212.01 1014.65 204.89 1010.58Q197.77 1006.5 193.9 999.38Q190.03 992.26 190.03 983L190.03 983Q190.03 973.6 193.73 965.92Q197.42 958.25 204.54 953.76Q211.66 949.27 221.89 949.27" /><path d="M285 1048.73L285 1048.73Q276.77 1048.73 270.76 1047.69Q264.75 1046.66 260.95 1044.65Q257.14 1042.65 255.31 1039.92Q253.48 1037.19 253.48 1033.87L253.48 1033.87Q253.48 1031.24 254.69 1029Q255.9 1026.75 258.98 1024.88Q262.05 1023.02 267.48 1021.46Q272.9 1019.91 281.34 1018.59L281.34 1018.59L287.63 1018.59L287.69 1019.98Q280.23 1020.94 276.26 1022.53Q272.28 1024.12 270.86 1026.27Q269.45 1028.41 269.45 1031.1L269.45 1031.1Q269.45 1034.28 271.45 1036.6Q273.46 1038.91 277.6 1040.16Q281.75 1041.4 288.25 1041.4L288.25 1041.4Q294.74 1041.4 299.27 1040.02Q303.8 1038.64 306.18 1036.29Q308.57 1033.94 308.57 1031.1L308.57 1031.1Q308.57 1029.03 307.46 1027.58Q306.36 1026.13 303.63 1025.09Q300.9 1024.05 295.89 1023.36Q290.87 1022.67 282.99 1022.19L282.99 1022.19Q275.18 1021.63 270.21 1020.22Q265.23 1018.8 262.57 1016.66Q259.91 1014.52 258.91 1011.82Q257.9 1009.12 257.97 1006.15L257.97 1006.15Q258.11 1000.07 262.95 996.3Q267.79 992.54 277.26 991.36L277.26 991.36L279.54 993.85Q275.39 994.26 273.77 995.58Q272.14 996.89 272.14 999.03L272.14 999.03Q272.14 1000.55 272.9 1001.59Q273.66 1002.63 275.84 1003.39Q278.02 1004.15 282.3 1004.6Q286.59 1005.05 293.71 1005.39L293.71 1005.39Q301.45 1005.81 307.01 1006.98Q312.58 1008.16 316.1 1010.37Q319.63 1012.58 321.36 1015.93Q323.08 1019.28 323.08 1023.98L323.08 1023.98Q323.08 1031.03 318.7 1036.63Q314.31 1042.23 305.8 1045.48Q297.3 1048.73 285 1048.73M285.28 995.09L285.28 995.09Q276.22 995.09 269.79 992.22Q263.36 989.36 259.94 984.17Q256.52 978.99 256.52 972.21L256.52 972.21Q256.52 965.09 260.15 959.95Q263.78 954.8 270.31 952.03Q276.84 949.27 285.34 949.27L285.34 949.27Q292.53 949.27 297.89 951.24Q303.25 953.21 306.84 956.52Q310.44 959.84 312.27 963.88Q314.1 967.93 314.1 972.14L314.1 972.14Q314.1 979.19 310.44 984.38Q306.77 989.56 300.31 992.33Q293.85 995.09 285.28 995.09M285.83 987.9L285.83 987.9Q289.84 987.9 292.15 984.55Q294.47 981.2 294.47 973.46L294.47 973.46Q294.47 964.33 291.88 960.33Q289.28 956.32 284.86 956.32L284.86 956.32Q280.85 956.32 278.5 959.63Q276.15 962.95 276.15 970.76L276.15 970.76Q276.15 979.89 278.78 983.9Q281.4 987.9 285.83 987.9M295.16 955.07L295.16 955.07L293.64 950.37Q299.17 950.99 303.45 950.89Q307.74 950.79 311.02 950.34Q314.31 949.89 316.9 949.44Q319.49 948.99 321.63 948.99L321.63 948.99Q323.91 948.99 325.09 950.3Q326.26 951.62 326.26 954.66L326.26 954.66Q326.26 958.87 324.47 960.77Q322.67 962.68 320.39 962.68L320.39 962.68Q318.25 962.68 316.24 961.29Q314.24 959.91 311.61 958.22Q308.98 956.52 305.08 955.49Q301.17 954.45 295.16 955.07" /><path d="M366.08 974.15L366.08 974.15L366.22 980.85Q360.13 982.1 356.37 983.51Q352.6 984.93 350.56 986.49Q348.52 988.04 347.79 989.84Q347.07 991.64 347.07 993.85L347.07 993.85Q347.07 998.27 349 1000.28Q350.94 1002.28 354.33 1002.28L354.33 1002.28Q356.75 1002.28 358.65 1001.11Q360.55 999.93 361.65 998Q362.76 996.06 362.76 993.71L362.76 993.71L362.76 967.44Q362.76 962.95 360.41 960.43Q358.06 957.91 352.81 957.91L352.81 957.91Q350.52 957.91 348.28 958.29Q346.03 958.67 344.17 959.43L344.17 959.43L346.86 954.52Q346.38 958.32 345.86 960.81Q345.34 963.3 344.75 964.85Q344.17 966.41 343.34 967.44L343.34 967.44Q342.23 969.03 340.12 969.86Q338.01 970.69 335.39 970.69L335.39 970.69Q332 970.69 330.24 969.45Q328.48 968.2 328.48 966.06L328.48 966.06Q328.48 963.16 331.14 960.22Q333.8 957.28 338.39 954.83Q342.99 952.38 348.87 950.92Q354.74 949.47 361.1 949.47L361.1 949.47Q369.53 949.47 374.3 951.96Q379.07 954.45 381.04 958.91Q383.01 963.37 383.01 969.38L383.01 969.38L383.01 999.38Q383.01 1001.18 383.53 1002.35Q384.05 1003.53 385.05 1004.08Q386.05 1004.63 387.64 1004.63L387.64 1004.63Q388.89 1004.63 390.44 1004.22Q392 1003.8 393.66 1002.9L393.66 1002.9L393.66 1007.95Q389.92 1010.99 385.67 1012.82Q381.42 1014.65 377.55 1014.65L377.55 1014.65Q372.71 1014.65 369.64 1012.79Q366.56 1010.92 365.11 1007.43Q363.66 1003.94 363.45 999.24L363.45 999.24L364.14 998.89Q362.76 1004.22 360.1 1007.74Q357.44 1011.27 353.7 1012.96Q349.97 1014.65 345.34 1014.65L345.34 1014.65Q337.32 1014.65 332.42 1010.54Q327.51 1006.43 327.51 998.13L327.51 998.13Q327.51 994.12 329.13 990.84Q330.76 987.56 334.9 984.69Q339.05 981.82 346.62 979.23Q354.19 976.64 366.08 974.15" /><path d="M433.68 949.27L433.68 949.27Q441 949.27 445.39 950.75Q449.78 952.24 451.72 954.66Q453.65 957.08 453.65 959.84L453.65 959.84Q453.65 962.47 452.41 964.47Q451.16 966.48 449.09 967.58Q447.02 968.69 444.6 968.69L444.6 968.69Q442.45 968.69 440.48 967.51Q438.51 966.34 436.72 964.65Q434.92 962.95 433.16 961.26Q431.4 959.56 429.74 958.39Q428.08 957.21 426.35 957.21L426.35 957.21Q423.1 957.21 420.37 959.05Q417.64 960.88 415.98 964.89Q414.32 968.9 414.32 975.46L414.32 975.46Q414.32 983.96 416.78 989.49Q419.23 995.02 423.86 997.75Q428.49 1000.48 434.99 1000.48L434.99 1000.48Q439.62 1000.48 443.59 999.31Q447.57 998.13 451.65 995.58L451.65 995.58L453.72 999.93Q448.88 1005.11 444.32 1008.36Q439.76 1011.61 435.27 1013.13Q430.77 1014.65 426.28 1014.65L426.28 1014.65Q416.81 1014.65 409.9 1010.68Q402.99 1006.7 399.19 999.65Q395.38 992.6 395.38 983.55L395.38 983.55Q395.38 976.36 397.94 970.11Q400.5 963.85 405.41 959.18Q410.31 954.52 417.43 951.89Q424.55 949.27 433.68 949.27" /><path d="M484.82 957.56L504.66 1000.07L494.09 1021.36L462.5 958.39L454.14 954.93L454.14 951.06L492.64 951.06L492.64 955L484.82 957.56M472.94 1048.73L472.94 1048.73Q467.82 1048.73 464.71 1046.17Q461.6 1043.61 461.6 1039.12L461.6 1039.12Q461.6 1036.77 462.57 1034.97Q463.54 1033.18 464.92 1032.21Q466.3 1031.24 467.48 1031.24L467.48 1031.24Q468.72 1031.24 470.21 1031.76Q471.69 1032.28 473.59 1032.8Q475.49 1033.32 477.98 1033.32L477.98 1033.32Q480.54 1033.32 482.47 1032.52Q484.41 1031.73 486.1 1029.65Q487.8 1027.58 489.66 1023.78L489.66 1023.78L496.85 1008.23L500.24 1000.62L515.86 957.35L508.53 955L508.53 951.06L532.79 951.06L532.79 955L525.95 957.49L497.68 1025.71Q493.88 1034.91 490.29 1039.88Q486.69 1044.86 482.58 1046.79Q478.47 1048.73 472.94 1048.73" /></g>
    <g data-layer="descriptor-accent" data-font="space-grotesk-500" fill="#FFFFFF"><path d="M112.1 1117.56L112.1 1117.56Q109.96 1117.56 108.31 1116.8Q106.66 1116.04 105.72 1114.57Q104.79 1113.09 104.79 1110.98L104.79 1110.98L104.79 1110.3L107.69 1110.3L107.69 1110.98Q107.69 1112.98 108.89 1113.99Q110.1 1114.99 112.1 1114.99L112.1 1114.99Q114.13 1114.99 115.16 1114.13Q116.19 1113.28 116.19 1111.93L116.19 1111.93Q116.19 1111.03 115.71 1110.46Q115.22 1109.9 114.32 1109.56Q113.43 1109.22 112.18 1108.92L112.18 1108.92L111.18 1108.68Q109.37 1108.24 108.03 1107.61Q106.69 1106.97 105.96 1105.91Q105.22 1104.86 105.22 1103.21L105.22 1103.21Q105.22 1101.53 106.05 1100.33Q106.88 1099.14 108.34 1098.49Q109.8 1097.84 111.78 1097.84L111.78 1097.84Q113.76 1097.84 115.31 1098.52Q116.87 1099.2 117.76 1100.52Q118.66 1101.85 118.66 1103.86L118.66 1103.86L118.66 1104.83L115.76 1104.83L115.76 1103.86Q115.76 1102.64 115.26 1101.88Q114.76 1101.12 113.86 1100.77Q112.97 1100.42 111.78 1100.42L111.78 1100.42Q110.04 1100.42 109.08 1101.13Q108.12 1101.85 108.12 1103.12L108.12 1103.12Q108.12 1103.99 108.54 1104.55Q108.96 1105.1 109.77 1105.45Q110.59 1105.81 111.81 1106.08L111.81 1106.08L112.81 1106.32Q114.65 1106.73 116.06 1107.36Q117.47 1108 118.28 1109.08Q119.09 1110.17 119.09 1111.87L119.09 1111.87Q119.09 1113.58 118.24 1114.85Q117.38 1116.12 115.81 1116.84Q114.24 1117.56 112.1 1117.56" /><path d="M136.19 1117.56L136.19 1117.56Q132.69 1117.56 130.63 1115.6Q128.58 1113.63 128.58 1109.92L128.58 1109.92L128.58 1105.48Q128.58 1101.77 130.63 1099.81Q132.69 1097.84 136.19 1097.84L136.19 1097.84Q139.68 1097.84 141.75 1099.81Q143.82 1101.77 143.82 1105.48L143.82 1105.48L143.82 1109.92Q143.82 1113.63 141.75 1115.6Q139.68 1117.56 136.19 1117.56M136.19 1114.93L136.19 1114.93Q138.44 1114.93 139.65 1113.62Q140.87 1112.31 140.87 1110.03L140.87 1110.03L140.87 1105.37Q140.87 1103.1 139.65 1101.78Q138.44 1100.47 136.19 1100.47L136.19 1100.47Q133.99 1100.47 132.75 1101.78Q131.5 1103.1 131.5 1105.37L131.5 1105.37L131.5 1110.03Q131.5 1112.31 132.75 1113.62Q133.99 1114.93 136.19 1114.93" /><path d="M161.3 1117.56L161.3 1117.56Q159.05 1117.56 157.44 1116.75Q155.83 1115.94 154.95 1114.41Q154.07 1112.87 154.07 1110.68L154.07 1110.68L154.07 1098.22L157.02 1098.22L157.02 1110.76Q157.02 1112.77 158.13 1113.85Q159.24 1114.93 161.3 1114.93L161.3 1114.93Q163.36 1114.93 164.47 1113.85Q165.58 1112.77 165.58 1110.76L165.58 1110.76L165.58 1098.22L168.5 1098.22L168.5 1110.68Q168.5 1112.87 167.64 1114.41Q166.77 1115.94 165.15 1116.75Q163.52 1117.56 161.3 1117.56" /><path d="M182.13 1117.18L179.24 1117.18L179.24 1098.22L184.87 1098.22L190.01 1115.23L190.45 1115.23L190.45 1098.22L193.35 1098.22L193.35 1117.18L187.71 1117.18L182.57 1100.15L182.13 1100.15L182.13 1117.18" /><path d="M211.09 1117.18L203.51 1117.18L203.51 1114.58L206.05 1114.58L206.05 1100.82L203.51 1100.82L203.51 1098.22L211.09 1098.22Q214.88 1098.22 216.9 1100.15Q218.92 1102.07 218.92 1105.94L218.92 1105.94L218.92 1109.49Q218.92 1113.36 216.9 1115.27Q214.88 1117.18 211.09 1117.18L211.09 1117.18M209.01 1100.9L209.01 1114.53L211.12 1114.53Q213.58 1114.53 214.78 1113.28Q215.97 1112.04 215.97 1109.57L215.97 1109.57L215.97 1105.83Q215.97 1103.34 214.78 1102.12Q213.58 1100.9 211.12 1100.9L211.12 1100.9L209.01 1100.9" /></g><g data-layer="descriptor" data-font="space-grotesk-500" fill="#C8CDD4"><path d="M265.39 1117.18L257.81 1117.18L257.81 1114.58L260.35 1114.58L260.35 1100.82L257.81 1100.82L257.81 1098.22L265.39 1098.22Q269.18 1098.22 271.2 1100.15Q273.22 1102.07 273.22 1105.94L273.22 1105.94L273.22 1109.49Q273.22 1113.36 271.2 1115.27Q269.18 1117.18 265.39 1117.18L265.39 1117.18M263.31 1100.9L263.31 1114.53L265.42 1114.53Q267.88 1114.53 269.08 1113.28Q270.27 1112.04 270.27 1109.57L270.27 1109.57L270.27 1105.83Q270.27 1103.34 269.08 1102.12Q267.88 1100.9 265.42 1100.9L265.42 1100.9L263.31 1100.9" /><path d="M295.52 1117.18L283.44 1117.18L283.44 1098.22L295.38 1098.22L295.38 1100.88L286.36 1100.88L286.36 1106.32L294.62 1106.32L294.62 1108.97L286.36 1108.97L286.36 1114.53L295.52 1114.53L295.52 1117.18" /><path d="M311.93 1117.56L311.93 1117.56Q309.79 1117.56 308.14 1116.8Q306.49 1116.04 305.56 1114.57Q304.62 1113.09 304.62 1110.98L304.62 1110.98L304.62 1110.3L307.52 1110.3L307.52 1110.98Q307.52 1112.98 308.72 1113.99Q309.93 1114.99 311.93 1114.99L311.93 1114.99Q313.97 1114.99 314.99 1114.13Q316.02 1113.28 316.02 1111.93L316.02 1111.93Q316.02 1111.03 315.54 1110.46Q315.05 1109.9 314.15 1109.56Q313.26 1109.22 312.02 1108.92L312.02 1108.92L311.01 1108.68Q309.2 1108.24 307.86 1107.61Q306.52 1106.97 305.79 1105.91Q305.05 1104.86 305.05 1103.21L305.05 1103.21Q305.05 1101.53 305.88 1100.33Q306.71 1099.14 308.17 1098.49Q309.63 1097.84 311.61 1097.84L311.61 1097.84Q313.59 1097.84 315.14 1098.52Q316.7 1099.2 317.59 1100.52Q318.49 1101.85 318.49 1103.86L318.49 1103.86L318.49 1104.83L315.59 1104.83L315.59 1103.86Q315.59 1102.64 315.09 1101.88Q314.59 1101.12 313.69 1100.77Q312.8 1100.42 311.61 1100.42L311.61 1100.42Q309.88 1100.42 308.91 1101.13Q307.95 1101.85 307.95 1103.12L307.95 1103.12Q307.95 1103.99 308.37 1104.55Q308.79 1105.1 309.6 1105.45Q310.42 1105.81 311.64 1106.08L311.64 1106.08L312.64 1106.32Q314.48 1106.73 315.89 1107.36Q317.3 1108 318.11 1109.08Q318.92 1110.17 318.92 1111.87L318.92 1111.87Q318.92 1113.58 318.07 1114.85Q317.22 1116.12 315.64 1116.84Q314.07 1117.56 311.93 1117.56" /><path d="M331.82 1117.18L328.89 1117.18L328.89 1098.22L331.82 1098.22L331.82 1117.18" /><path d="M349.27 1117.56L349.27 1117.56Q347.24 1117.56 345.64 1116.68Q344.04 1115.8 343.12 1114.09Q342.2 1112.39 342.2 1109.92L342.2 1109.92L342.2 1105.48Q342.2 1101.77 344.23 1099.81Q346.26 1097.84 349.73 1097.84L349.73 1097.84Q353.14 1097.84 354.98 1099.7Q356.82 1101.55 356.82 1104.67L356.82 1104.67L356.82 1104.8L353.93 1104.8L353.93 1104.59Q353.93 1103.42 353.47 1102.49Q353 1101.55 352.08 1101.01Q351.16 1100.47 349.73 1100.47L349.73 1100.47Q347.56 1100.47 346.34 1101.78Q345.12 1103.1 345.12 1105.43L345.12 1105.43L345.12 1109.98Q345.12 1112.28 346.34 1113.62Q347.56 1114.96 349.75 1114.96L349.75 1114.96Q351.92 1114.96 352.92 1113.77Q353.93 1112.58 353.93 1110.68L353.93 1110.68L353.93 1110.33L348.83 1110.33L348.83 1107.81L356.82 1107.81L356.82 1117.18L354.12 1117.18L354.12 1115.26L353.68 1115.26Q353.44 1115.77 352.96 1116.31Q352.49 1116.86 351.61 1117.21Q350.73 1117.56 349.27 1117.56" /><path d="M370.4 1117.18L367.5 1117.18L367.5 1098.22L373.13 1098.22L378.28 1115.23L378.71 1115.23L378.71 1098.22L381.61 1098.22L381.61 1117.18L375.98 1117.18L370.83 1100.15L370.4 1100.15L370.4 1117.18" /></g>
    <text opacity="0" x="97.2" y="1049.49">Legacy</text>
    <text opacity="0" x="97.2" y="1125.09">SOUND DESIGN</text>
  </g></svg>