<svg xmlns="http://www.w3.org/2000/svg" width="800" height="800" viewBox="0 0 800 800" role="img" aria-labelledby="legacy-stacked-lockup-stacked-lockup-legacy-rsn-v1-title legacy-stacked-lockup-stacked-lockup-legacy-rsn-v1-desc" data-engine="legacy-resonance" data-surface="stacked-lockup" class="motion-full"><title id="legacy-stacked-lockup-stacked-lockup-legacy-rsn-v1-title">Legacy Sound Design</title><desc id="legacy-stacked-lockup-stacked-lockup-legacy-rsn-v1-desc">Deterministic signal-constellation identity mark for Legacy Sound Design.</desc><defs>
      <linearGradient id="legacy-stacked-lockup-stacked-lockup-legacy-rsn-v1-field" x1="0%" y1="0%" x2="100%" y2="100%">
        <stop offset="0%" stop-color="#07090D" />
        <stop offset="58%" stop-color="#0B1A2C" />
        <stop offset="100%" stop-color="#07090D" />
      </linearGradient>
      <linearGradient id="legacy-stacked-lockup-stacked-lockup-legacy-rsn-v1-accent" x1="0%" y1="0%" x2="100%" y2="100%">
        <stop offset="0%" stop-color="#7894D4" />
        <stop offset="54%" stop-color="#315EA8" />
        <stop offset="100%" stop-color="#0B1A2C" />
      </linearGradient>
      <linearGradient id="legacy-stacked-lockup-stacked-lockup-legacy-rsn-v1-metal" x1="0%" y1="0%" x2="100%" y2="100%">
        <stop offset="0%" stop-color="#F7F8FA" />
        <stop offset="52%" stop-color="#C9D0D8" />
        <stop offset="100%" stop-color="#F7F8FA" />
      </linearGradient>
      <style>
        text { font-family: "Space Grotesk", Inter, "Avenir Next", "Helvetica Neue", Arial, sans-serif; }
        @media (prefers-reduced-motion: reduce) { .pulse, .trail { animation: none !important; } }
        
      .pulse { animation: legacyPulse 4200ms ease-in-out infinite; transform-origin: center; }
      .module-accent { animation: legacyAccent 3600ms ease-in-out infinite; transform-origin: center; }
      @keyframes legacyPulse { 0%,100% { opacity: .18; transform: scale(.985); } 50% { opacity: .42; transform: scale(1.025); } }
      @keyframes legacyAccent { 0%,100% { opacity: .82; } 50% { opacity: 1; } }
      </style>
    </defs><g data-layer="resonance-field"><circle class="pulse" cx="400" cy="272" r="121.741" fill="none" stroke="#315EA8" stroke-width="0.773" opacity="0.092" /><circle class="pulse" cx="400" cy="272" r="129.242" fill="none" stroke="#7A8492" stroke-width="0.773" opacity="0.085" /><circle class="pulse" cx="400" cy="272" r="136.742" fill="none" stroke="#315EA8" stroke-width="0.773" opacity="0.078" /><circle class="pulse" cx="400" cy="272" r="144.243" fill="none" stroke="#7A8492" stroke-width="0.773" opacity="0.071" /><circle class="pulse" cx="400" cy="272" r="151.744" fill="none" stroke="#315EA8" stroke-width="0.773" opacity="0.064" /></g><g data-layer="motherform"><circle class="module" cx="255.52" cy="272" r="5.914" fill="#C9D0D8" opacity="0.72" /><rect class="module" x="279.04" y="260.351" width="13.44" height="23.297" rx="5.645" fill="#C9D0D8" opacity="0.96" /><rect class="module" x="305.92" y="245.099" width="13.44" height="53.803" rx="5.645" fill="#C9D0D8" opacity="0.96" /><rect class="module" x="332.8" y="224.067" width="13.44" height="95.866" rx="5.645" fill="#C9D0D8" opacity="0.96" /><rect class="module" x="359.68" y="202.732" width="13.44" height="138.537" rx="5.645" fill="#C9D0D8" opacity="0.96" /><rect class="module" x="392.272" y="133.749" width="15.456" height="276.501" rx="6.492" fill="url(#legacy-stacked-lockup-stacked-lockup-legacy-rsn-v1-metal)" opacity="0.96" /><rect class="module-accent" x="426.88" y="184.993" width="13.44" height="174.015" rx="5.645" fill="url(#legacy-stacked-lockup-stacked-lockup-legacy-rsn-v1-accent)" opacity="0.96" /><rect class="module-accent" x="453.76" y="212.025" width="13.44" height="119.95" rx="5.645" fill="url(#legacy-stacked-lockup-stacked-lockup-legacy-rsn-v1-accent)" opacity="0.96" /><rect class="module-accent" x="480.64" y="233.608" width="13.44" height="76.784" rx="5.645" fill="url(#legacy-stacked-lockup-stacked-lockup-legacy-rsn-v1-accent)" opacity="0.96" /><rect class="module" x="507.52" y="251.942" width="13.44" height="40.116" rx="5.645" fill="#C9D0D8" opacity="0.96" /><circle class="module" cx="544.48" cy="272" r="5.914" fill="#C9D0D8" opacity="0.72" /><rect x="395.296" y="130.88" width="9.408" height="282.24" rx="3.293" fill="#F7F8FA" opacity="0.98" /></g><g data-layer="lockup" text-anchor="middle">
      <g data-layer="wordmark" data-font="newsreader-700" fill="#F7F8FA"><path d="M302.84 512.26L297.64 540.7L294.57 540.7L287.65 536.44L255.99 536.44L256.04 529L290.72 529L285.68 531.92L298.78 511.64L302.84 512.26M272.52 469.1L264.67 472.06L264.67 536.44L239.76 536.44L239.76 533.48L247.61 530.51L247.61 472.06L239.76 469.1L239.76 466.14L272.52 466.14L272.52 469.1" /><path d="M329.77 488.6L329.77 488.6Q336.27 488.6 340.75 491.23Q345.22 493.85 347.69 498.9Q350.16 503.94 350.63 511.22L350.63 511.22L316.36 511.22L316.36 506.23L342.62 505.03L336.27 507.89Q336.12 503.26 335.23 500.3Q334.35 497.34 332.71 495.88Q331.07 494.42 328.63 494.42L328.63 494.42Q326.08 494.42 324.16 495.83Q322.23 497.23 321.14 500.56Q320.05 503.89 320.05 509.76L320.05 509.76Q320.05 515.54 322 519.41Q323.95 523.28 327.59 525.23Q331.23 527.18 336.33 527.18L336.33 527.18Q338.72 527.18 340.85 526.82Q342.98 526.46 345.01 525.65Q347.04 524.84 349.12 523.54L349.12 523.54L350.63 526.77Q347.4 530.1 344.05 532.59Q340.69 535.09 337.11 536.44Q333.52 537.79 329.57 537.79L329.57 537.79Q322.34 537.79 316.98 534.72Q311.63 531.66 308.71 526.3Q305.8 520.94 305.8 513.98L305.8 513.98Q305.8 506.9 308.58 501.13Q311.37 495.36 316.72 491.98Q322.08 488.6 329.77 488.6" /><path d="M377.25 563.43L377.25 563.43Q371.06 563.43 366.54 562.65Q362.01 561.87 359.15 560.36Q356.29 558.85 354.92 556.8Q353.54 554.74 353.54 552.25L353.54 552.25Q353.54 550.27 354.45 548.58Q355.36 546.89 357.67 545.49Q359.99 544.08 364.07 542.91Q368.15 541.74 374.49 540.76L374.49 540.76L379.23 540.76L379.28 541.8Q373.66 542.52 370.67 543.72Q367.68 544.92 366.62 546.53Q365.55 548.14 365.55 550.17L365.55 550.17Q365.55 552.56 367.06 554.3Q368.57 556.04 371.69 556.98Q374.81 557.92 379.69 557.92L379.69 557.92Q384.58 557.92 387.99 556.88Q391.39 555.84 393.19 554.07Q394.98 552.3 394.98 550.17L394.98 550.17Q394.98 548.61 394.15 547.52Q393.32 546.42 391.26 545.64Q389.21 544.86 385.44 544.34Q381.67 543.82 375.74 543.46L375.74 543.46Q369.87 543.04 366.12 541.98Q362.38 540.91 360.38 539.3Q358.37 537.69 357.62 535.66Q356.87 533.63 356.92 531.4L356.92 531.4Q357.02 526.82 360.66 523.99Q364.3 521.15 371.43 520.27L371.43 520.27L373.14 522.14Q370.02 522.45 368.8 523.44Q367.58 524.43 367.58 526.04L367.58 526.04Q367.58 527.18 368.15 527.96Q368.72 528.74 370.36 529.32Q372 529.89 375.22 530.23Q378.45 530.56 383.8 530.82L383.8 530.82Q389.63 531.14 393.81 532.02Q398 532.9 400.65 534.57Q403.3 536.23 404.6 538.75Q405.9 541.28 405.9 544.81L405.9 544.81Q405.9 550.12 402.6 554.33Q399.3 558.54 392.9 560.98Q386.51 563.43 377.25 563.43M377.46 523.08L377.46 523.08Q370.65 523.08 365.81 520.92Q360.97 518.76 358.4 514.86Q355.83 510.96 355.83 505.86L355.83 505.86Q355.83 500.51 358.56 496.63Q361.29 492.76 366.2 490.68Q371.11 488.6 377.51 488.6L377.51 488.6Q382.92 488.6 386.95 490.08Q390.98 491.56 393.68 494.06Q396.39 496.56 397.76 499.6Q399.14 502.64 399.14 505.81L399.14 505.81Q399.14 511.12 396.39 515.02Q393.63 518.92 388.77 521Q383.91 523.08 377.46 523.08M377.87 517.67L377.87 517.67Q380.89 517.67 382.63 515.15Q384.37 512.62 384.37 506.8L384.37 506.8Q384.37 499.94 382.42 496.92Q380.47 493.9 377.15 493.9L377.15 493.9Q374.13 493.9 372.36 496.4Q370.59 498.9 370.59 504.77L370.59 504.77Q370.59 511.64 372.57 514.65Q374.55 517.67 377.87 517.67M384.89 492.97L384.89 492.97L383.75 489.43Q387.91 489.9 391.13 489.82Q394.36 489.74 396.83 489.41Q399.3 489.07 401.25 488.73Q403.2 488.39 404.81 488.39L404.81 488.39Q406.53 488.39 407.41 489.38Q408.29 490.37 408.29 492.66L408.29 492.66Q408.29 495.83 406.94 497.26Q405.59 498.69 403.87 498.69L403.87 498.69Q402.26 498.69 400.75 497.65Q399.25 496.61 397.27 495.33Q395.29 494.06 392.36 493.28Q389.42 492.5 384.89 492.97" /><path d="M438.25 507.32L438.25 507.32L438.35 512.36Q433.77 513.3 430.94 514.37Q428.11 515.43 426.57 516.6Q425.04 517.77 424.49 519.12Q423.95 520.48 423.95 522.14L423.95 522.14Q423.95 525.47 425.4 526.98Q426.86 528.48 429.41 528.48L429.41 528.48Q431.23 528.48 432.66 527.6Q434.09 526.72 434.92 525.26Q435.75 523.8 435.75 522.04L435.75 522.04L435.75 502.28Q435.75 498.9 433.98 497Q432.21 495.1 428.26 495.1L428.26 495.1Q426.55 495.1 424.86 495.39Q423.17 495.67 421.76 496.24L421.76 496.24L423.79 492.55Q423.43 495.41 423.04 497.28Q422.65 499.16 422.2 500.33Q421.76 501.5 421.14 502.28L421.14 502.28Q420.31 503.47 418.72 504.1Q417.13 504.72 415.16 504.72L415.16 504.72Q412.61 504.72 411.28 503.78Q409.96 502.85 409.96 501.24L409.96 501.24Q409.96 499.05 411.96 496.84Q413.96 494.63 417.42 492.79Q420.88 490.94 425.3 489.85Q429.72 488.76 434.5 488.76L434.5 488.76Q440.85 488.76 444.43 490.63Q448.02 492.5 449.5 495.85Q450.99 499.21 450.99 503.73L450.99 503.73L450.99 526.3Q450.99 527.65 451.38 528.54Q451.77 529.42 452.52 529.84Q453.27 530.25 454.47 530.25L454.47 530.25Q455.41 530.25 456.58 529.94Q457.75 529.63 458.99 528.95L458.99 528.95L458.99 532.75Q456.19 535.04 452.99 536.41Q449.79 537.79 446.88 537.79L446.88 537.79Q443.24 537.79 440.92 536.39Q438.61 534.98 437.52 532.36Q436.43 529.73 436.27 526.2L436.27 526.2L436.79 525.94Q435.75 529.94 433.75 532.59Q431.75 535.24 428.94 536.52Q426.13 537.79 422.65 537.79L422.65 537.79Q416.61 537.79 412.92 534.7Q409.23 531.6 409.23 525.36L409.23 525.36Q409.23 522.35 410.45 519.88Q411.67 517.41 414.79 515.25Q417.91 513.09 423.61 511.14Q429.3 509.19 438.25 507.32" /><path d="M489.1 488.6L489.1 488.6Q494.61 488.6 497.92 489.72Q501.22 490.84 502.67 492.66Q504.13 494.48 504.13 496.56L504.13 496.56Q504.13 498.53 503.19 500.04Q502.26 501.55 500.7 502.38Q499.14 503.21 497.32 503.21L497.32 503.21Q495.71 503.21 494.22 502.33Q492.74 501.44 491.39 500.17Q490.04 498.9 488.71 497.62Q487.39 496.35 486.14 495.46Q484.89 494.58 483.59 494.58L483.59 494.58Q481.15 494.58 479.09 495.96Q477.04 497.34 475.79 500.35Q474.54 503.37 474.54 508.31L474.54 508.31Q474.54 514.7 476.39 518.86Q478.23 523.02 481.72 525.08Q485.2 527.13 490.09 527.13L490.09 527.13Q493.57 527.13 496.56 526.25Q499.55 525.36 502.62 523.44L502.62 523.44L504.18 526.72Q500.54 530.62 497.11 533.06Q493.68 535.5 490.3 536.65Q486.92 537.79 483.54 537.79L483.54 537.79Q476.41 537.79 471.21 534.8Q466.01 531.81 463.15 526.51Q460.29 521.2 460.29 514.39L460.29 514.39Q460.29 508.98 462.22 504.28Q464.14 499.57 467.83 496.06Q471.53 492.55 476.88 490.58Q482.24 488.6 489.1 488.6" /><path d="M527.58 494.84L542.51 526.82L534.55 542.84L510.79 495.46L504.49 492.86L504.49 489.95L533.46 489.95L533.46 492.92L527.58 494.84M518.64 563.43L518.64 563.43Q514.79 563.43 512.45 561.5Q510.11 559.58 510.11 556.2L510.11 556.2Q510.11 554.43 510.84 553.08Q511.57 551.73 512.61 551Q513.65 550.27 514.53 550.27L514.53 550.27Q515.47 550.27 516.58 550.66Q517.7 551.05 519.13 551.44Q520.56 551.83 522.43 551.83L522.43 551.83Q524.36 551.83 525.81 551.23Q527.27 550.64 528.54 549.08Q529.82 547.52 531.22 544.66L531.22 544.66L536.63 532.96L539.18 527.24L550.93 494.68L545.42 492.92L545.42 489.95L563.67 489.95L563.67 492.92L558.52 494.79L537.25 546.11Q534.39 553.03 531.69 556.77Q528.99 560.52 525.89 561.97Q522.8 563.43 518.64 563.43" /></g>
      <g data-layer="descriptor-accent" data-font="space-grotesk-500" fill="#315EA8"><path d="M290.92 605.9L290.92 605.9Q289.18 605.9 287.84 605.29Q286.5 604.67 285.75 603.47Q284.99 602.28 284.99 600.57L284.99 600.57L284.99 600.02L287.34 600.02L287.34 600.57Q287.34 602.19 288.32 603Q289.29 603.82 290.92 603.82L290.92 603.82Q292.56 603.82 293.4 603.12Q294.23 602.43 294.23 601.34L294.23 601.34Q294.23 600.61 293.83 600.15Q293.44 599.69 292.71 599.42Q291.99 599.14 290.98 598.9L290.98 598.9L290.17 598.7Q288.7 598.35 287.61 597.84Q286.53 597.32 285.93 596.46Q285.34 595.61 285.34 594.27L285.34 594.27Q285.34 592.91 286.01 591.94Q286.68 590.98 287.87 590.45Q289.05 589.92 290.65 589.92L290.65 589.92Q292.25 589.92 293.52 590.47Q294.78 591.02 295.5 592.1Q296.23 593.17 296.23 594.8L296.23 594.8L296.23 595.59L293.88 595.59L293.88 594.8Q293.88 593.81 293.47 593.19Q293.07 592.58 292.34 592.29Q291.62 592.01 290.65 592.01L290.65 592.01Q289.25 592.01 288.47 592.59Q287.69 593.17 287.69 594.2L287.69 594.2Q287.69 594.91 288.03 595.36Q288.37 595.81 289.03 596.09Q289.69 596.38 290.67 596.6L290.67 596.6L291.49 596.79Q292.98 597.12 294.12 597.64Q295.26 598.15 295.92 599.03Q296.58 599.91 296.58 601.29L296.58 601.29Q296.58 602.67 295.89 603.71Q295.19 604.74 293.92 605.32Q292.65 605.9 290.92 605.9" /><path d="M310.99 605.9L310.99 605.9Q308.16 605.9 306.49 604.31Q304.82 602.72 304.82 599.71L304.82 599.71L304.82 596.11Q304.82 593.11 306.49 591.52Q308.16 589.92 310.99 589.92L310.99 589.92Q313.82 589.92 315.5 591.52Q317.18 593.11 317.18 596.11L317.18 596.11L317.18 599.71Q317.18 602.72 315.5 604.31Q313.82 605.9 310.99 605.9M310.99 603.77L310.99 603.77Q312.81 603.77 313.8 602.71Q314.78 601.64 314.78 599.8L314.78 599.8L314.78 596.03Q314.78 594.18 313.8 593.12Q312.81 592.05 310.99 592.05L310.99 592.05Q309.21 592.05 308.2 593.12Q307.19 594.18 307.19 596.03L307.19 596.03L307.19 599.8Q307.19 601.64 308.2 602.71Q309.21 603.77 310.99 603.77" /><path d="M331.89 605.9L331.89 605.9Q330.07 605.9 328.77 605.24Q327.46 604.58 326.75 603.34Q326.03 602.1 326.03 600.33L326.03 600.33L326.03 590.23L328.43 590.23L328.43 600.39Q328.43 602.02 329.33 602.89Q330.23 603.77 331.89 603.77L331.89 603.77Q333.56 603.77 334.46 602.89Q335.36 602.02 335.36 600.39L335.36 600.39L335.36 590.23L337.73 590.23L337.73 600.33Q337.73 602.1 337.03 603.34Q336.33 604.58 335.01 605.24Q333.69 605.9 331.89 605.9" /><path d="M349.33 605.59L346.98 605.59L346.98 590.23L351.55 590.23L355.72 604.01L356.07 604.01L356.07 590.23L358.42 590.23L358.42 605.59L353.85 605.59L349.68 591.79L349.33 591.79L349.33 605.59" /><path d="M373.35 605.59L367.21 605.59L367.21 603.49L369.27 603.49L369.27 592.34L367.21 592.34L367.21 590.23L373.35 590.23Q376.43 590.23 378.06 591.79Q379.7 593.35 379.7 596.49L379.7 596.49L379.7 599.36Q379.7 602.5 378.06 604.05Q376.43 605.59 373.35 605.59L373.35 605.59M371.67 592.4L371.67 603.44L373.38 603.44Q375.37 603.44 376.34 602.43Q377.3 601.42 377.3 599.43L377.3 599.43L377.3 596.4Q377.3 594.38 376.34 593.39Q375.37 592.4 373.38 592.4L373.38 592.4L371.67 592.4" /></g><g data-layer="descriptor" data-font="space-grotesk-500" fill="#C9D0D8"><path d="M417.35 605.59L411.2 605.59L411.2 603.49L413.27 603.49L413.27 592.34L411.2 592.34L411.2 590.23L417.35 590.23Q420.42 590.23 422.05 591.79Q423.69 593.35 423.69 596.49L423.69 596.49L423.69 599.36Q423.69 602.5 422.05 604.05Q420.42 605.59 417.35 605.59L417.35 605.59M415.66 592.4L415.66 603.44L417.37 603.44Q419.37 603.44 420.33 602.43Q421.3 601.42 421.3 599.43L421.3 599.43L421.3 596.4Q421.3 594.38 420.33 593.39Q419.37 592.4 417.37 592.4L417.37 592.4L415.66 592.4" /><path d="M442.31 605.59L432.53 605.59L432.53 590.23L442.2 590.23L442.2 592.38L434.9 592.38L434.9 596.79L441.59 596.79L441.59 598.94L434.9 598.94L434.9 603.44L442.31 603.44L442.31 605.59" /><path d="M456.18 605.9L456.18 605.9Q454.44 605.9 453.1 605.29Q451.76 604.67 451.01 603.47Q450.25 602.28 450.25 600.57L450.25 600.57L450.25 600.02L452.6 600.02L452.6 600.57Q452.6 602.19 453.57 603Q454.55 603.82 456.18 603.82L456.18 603.82Q457.82 603.82 458.65 603.12Q459.49 602.43 459.49 601.34L459.49 601.34Q459.49 600.61 459.09 600.15Q458.7 599.69 457.97 599.42Q457.25 599.14 456.24 598.9L456.24 598.9L455.43 598.7Q453.96 598.35 452.87 597.84Q451.79 597.32 451.19 596.46Q450.6 595.61 450.6 594.27L450.6 594.27Q450.6 592.91 451.27 591.94Q451.94 590.98 453.12 590.45Q454.31 589.92 455.91 589.92L455.91 589.92Q457.51 589.92 458.78 590.47Q460.04 591.02 460.76 592.1Q461.49 593.17 461.49 594.8L461.49 594.8L461.49 595.59L459.14 595.59L459.14 594.8Q459.14 593.81 458.73 593.19Q458.33 592.58 457.6 592.29Q456.88 592.01 455.91 592.01L455.91 592.01Q454.51 592.01 453.73 592.59Q452.95 593.17 452.95 594.2L452.95 594.2Q452.95 594.91 453.29 595.36Q453.63 595.81 454.29 596.09Q454.95 596.38 455.93 596.6L455.93 596.6L456.75 596.79Q458.24 597.12 459.38 597.64Q460.52 598.15 461.18 599.03Q461.84 599.91 461.84 601.29L461.84 601.29Q461.84 602.67 461.15 603.71Q460.45 604.74 459.18 605.32Q457.91 605.9 456.18 605.9" /><path d="M472.85 605.59L470.48 605.59L470.48 590.23L472.85 590.23L472.85 605.59" /><path d="M487.54 605.9L487.54 605.9Q485.9 605.9 484.6 605.19Q483.31 604.47 482.56 603.09Q481.81 601.71 481.81 599.71L481.81 599.71L481.81 596.11Q481.81 593.11 483.46 591.52Q485.11 589.92 487.92 589.92L487.92 589.92Q490.68 589.92 492.17 591.43Q493.66 592.93 493.66 595.45L493.66 595.45L493.66 595.56L491.32 595.56L491.32 595.39Q491.32 594.45 490.94 593.69Q490.57 592.93 489.82 592.49Q489.08 592.05 487.92 592.05L487.92 592.05Q486.16 592.05 485.17 593.12Q484.18 594.18 484.18 596.07L484.18 596.07L484.18 599.76Q484.18 601.62 485.17 602.71Q486.16 603.79 487.94 603.79L487.94 603.79Q489.69 603.79 490.5 602.83Q491.32 601.86 491.32 600.33L491.32 600.33L491.32 600.04L487.19 600.04L487.19 598L493.66 598L493.66 605.59L491.47 605.59L491.47 604.03L491.12 604.03Q490.92 604.45 490.54 604.89Q490.15 605.33 489.44 605.61Q488.73 605.9 487.54 605.9" /><path d="M505.22 605.59L502.87 605.59L502.87 590.23L507.44 590.23L511.61 604.01L511.96 604.01L511.96 590.23L514.31 590.23L514.31 605.59L509.74 605.59L505.57 591.79L505.22 591.79L505.22 605.59" /></g>
      <text opacity="0" x="400" y="528">Legacy</text>
      <text opacity="0" x="400" y="584">SOUND DESIGN</text>
    </g></svg>